<svg version="1" xmlns="http://www.w3.org/2000/svg" width="2064" height="2064" viewBox="0 0 1548.000000 1548.000000"><path d="M772.9 3c-.1.5-.2 1.3-.3 1.7-.1.5-.6 3.5-1 6.8-.4 3.2-1 6.8-1.2 8-.2 1.1-.6 3.9-.9 6.2-.5 3.9-3.2 23.9-4 29.3-.2 1.4-.6 4.5-1 7s-.8 5.6-1 7c-.3 1.4-.7 4.5-1 7-.3 2.5-1 7.2-1.5 10.5s-1.2 8.5-1.5 11.5c-.3 3-.8 6.2-1 7-.2.8-.6 3.7-1 6.5-.3 2.7-.7 6.1-1 7.5-.2 1.4-.7 4.7-1 7.4-.3 2.7-.7 5.9-1 7-.2 1.2-.7 4.3-1 7.1-.4 2.7-.8 6.6-1.1 8.5-.4 3.2-2 14.9-2.9 21-.2 1.4-.7 4.5-1 7-.3 2.5-1.4 10.3-2.5 17.5-1 7.1-2.1 15.2-2.5 18-.6 4.7-1.1 8.5-2 14.5-.2 1.4-.9 6.3-1.5 11s-1.3 9.6-1.5 11c-.2 1.4-.7 4.7-1 7.5-.4 2.7-.8 5.7-1 6.5-.2.8-.7 4.2-1 7.5-.4 3.3-.8 6.7-1 7.5-.2.8-.7 3.9-1 6.9-.4 3-.8 6.1-1 7-.1.9-.6 4.1-1 7.1-.8 6.4-1.4 10.5-2 14-.2 1.4-.7 4.7-1 7.5-.3 2.7-.8 6.1-1 7.5-.7 5.2-1.7 11.6-2 14-.2 1.4-.7 4.5-1.1 7-.4 2.5-.8 5.6-.9 7-.4 3.5-1.5 12.1-2 14.5-.2 1.1-.4 2.7-.5 3.5 0 .8-6.9-12-15.1-28.5-8.3-16.5-15.2-30.2-15.4-30.3-.2-.2-.2 2.2 0 5.5.2 3.2.7 15.2 1 26.8.3 11.5.8 25.2 1 30.2.3 5.1.3 9.3.1 9.3-.2 0-4.4-7.1-9.2-15.8-4.8-8.6-9.5-17.1-10.4-18.7-.9-1.7-3.2-5.7-5-9-29.4-52.9-51.3-92-52.4-93.7-1.4-1.9-1.5-1.7-1.1 3.3.3 3 .7 8.5 1 12.4.3 3.8.7 9 1 11.5.2 2.5.7 8.3 1 13 .3 4.7.7 10.5.9 13 .6 6.3 1.6 18.3 2.1 26.5.3 3.8.7 9 1 11.5.2 2.5.7 8.5 1.1 13.5.3 4.9.8 11.2 1 14 .6 6.9 1.2 14.6 1.9 24 .3 4.4.8 9.8 1 11.9.2 2.2.1 3.5-.4 3s-9.7-13.5-20.6-28.9c-10.9-15.4-20.2-28.5-20.7-29-.9-.9-.6 4.1.7 13.5.2 1.4.6 4.5 1 7 .3 2.5 1 7.6 1.5 11.5.5 3.8 1.2 9 1.5 11.5.3 2.5.8 6.2 1.1 8.2.3 2.1.4 3.8.1 3.8-.3 0-7.2-7.8-15.3-17.3-8.2-9.4-19.3-22.4-24.9-28.7-10.2-11.8-19.8-22.9-22.5-26-16.8-19.7-32.6-37.7-32.8-37.5-.2.2 6.1 17.4 8.8 24 1.4 3.5 3.4 9 3.7 10 .1.5 10.1 27.3 22.3 59.5 12.2 32.2 22.2 58.9 22.4 59.5.2.5.8 2.3 1.5 3.9.6 1.6 1 3 .8 3.2-.3.3-6.2-3.8-15.8-10.9-5.6-4.1-32.6-23.8-34.4-25.2-1.1-.7-6-4.4-10.9-8-4.9-3.7-10.1-7.4-11.5-8.3l-2.6-1.7 2.7 4.5c1.4 2.5 3.5 6.1 4.6 8 1.2 1.9 2.7 4.6 3.5 6 .7 1.4 6 10.4 11.7 20 15.3 25.9 19.9 34 19.6 34-.3 0-26.8-16.5-44.1-27.5-17.6-11.1-27.1-17.1-28.7-18-1-.6-11.8-7.3-24.1-15-12.2-7.7-23-14.5-23.9-15-1.9-1.1-12.6-7.8-22.3-14-5-3.2-6-3-2.5.5.3.3 3.1 3.6 6.2 7.5 3.1 3.8 6.5 7.9 7.5 9 1 1.1 4.4 5.2 7.5 9 3.1 3.9 6.7 8.2 8 9.7 1.3 1.4 3 3.5 3.8 4.5 1.4 1.7 13.8 16.6 18.6 22.3 1.2 1.4 5.7 6.8 10 12s8.1 9.7 8.4 10c.3.3 2.2 2.6 4.3 5.2 2.1 2.6 4.3 5.3 5 6 1.1 1.2 8 9.5 11.7 14.1.8 1.1 2 2.4 2.5 3.1 1.2 1.3 15.3 18.3 17.5 21 .8 1 2 2.3 2.5 3 .6.6 3 3.5 5.4 6.4l4.3 5.2-4.4-1.9c-2.3-1-14-6.3-25.8-11.6-11.8-5.4-23.5-10.6-26-11.7-2.5-1.1-8.3-3.8-12.8-5.9-4.6-2.1-8.6-3.9-8.7-3.9-.2 0-4.3-1.8-9.2-4.1-10.4-4.9-13.3-6-13.3-5.4 0 .3 9.2 13 20.5 28.2 11.2 15.2 20.3 27.9 20.1 28.1-.4.3-5.3-1.5-16.1-5.9-1.6-.7-3.2-1.3-3.5-1.4-.3 0-13.3-5.2-29-11.4-33.5-13.3-84.4-33.5-91.5-36.2l-5-1.9 4 3.7c6.3 5.9 21.6 19.6 26 23.4 2.2 1.9 4.9 4.3 6.1 5.4 1.1 1.1 3.6 3.3 5.5 5 3.9 3.3 20.8 18.4 22.5 20 .6.5 4.1 3.7 7.8 6.9 3.7 3.3 8 7.1 9.5 8.5 1.6 1.4 3.9 3.5 5.2 4.6 4.4 3.8 32.3 28.6 40.8 36.4 4.6 4.2 9.1 8.2 10 8.9 1.4 1.2 1.4 1.2-.4.8-1.1-.3-3.2-.8-4.7-1.1-3.2-.6-3.1-.6-19.3-4.1-6.6-1.4-13.1-2.8-14.4-3-1.2-.3-5.1-1.1-8.5-1.9-3.3-.8-7.2-1.6-8.6-1.9-4-.8-26.1-5.5-30.5-6.5-2.2-.6-4.1-.8-4.3-.6-.2.2 1.6 1.6 4 3.1 2.3 1.5 8.6 5.4 13.8 8.7 5.2 3.2 11.1 7 13 8.2 1.9 1.3 12.5 8 23.4 14.9l19.9 12.6-8.9-.5c-4.9-.3-12.3-.7-16.4-1-4.1-.3-11.5-.7-16.5-1-4.9-.2-12.6-.7-17-1-8.5-.6-17-1.1-32.5-2-5.2-.3-12.4-.8-16-1-3.6-.2-11.2-.7-17-1-5.8-.3-13-.8-16-1-12.7-1-28-1.6-28-1.2 0 .3 3 2.2 6.8 4.3 3.7 2 16.4 9.2 28.2 15.9 11.8 6.8 23.1 13.1 25 14.2 1.9 1.1 8.5 4.8 14.5 8.3 6.1 3.4 13 7.4 15.5 8.8 5.1 2.8 16 9 23.5 13.3 2.8 1.6 8 4.6 11.7 6.6 3.8 2 6.5 4 6 4.4-.4.4-7.9 1.9-16.7 3.3-8.8 1.4-17.1 2.8-18.5 3-12.8 2.3-21.2 3.6-25 4.1-4.2.5-6.1.7-15.7 2-20.8 2.7-43.7 5.7-47.3 6.1-2.5.2-5.6.7-7 .9-1.4.2-5.2.7-8.5 1.1-3.3.3-6.7.8-7.6.9-.9.2-4 .6-7 1-3 .3-6.5.8-7.9 1-2.4.4-15.1 1.9-25 3.1-2.5.3-5.6.7-7 .9-1.4.3-4.7.7-7.5 1.1-2.7.3-6.1.7-7.5.9-1.4.2-8.3 1.1-15.5 2-19.6 2.4-20.5 2.5-23.4 2.9-1.4.3-4.7.7-7.3 1-8.8 1.1-14.3 1.8-16.3 2.2-1.1.2-4.5.6-7.6.9-3.1.3-6.5.7-7.6.9-1.1.3-6.4 1-11.8 1.6-5.4.6-10.6 1.3-11.7 1.5-1.1.2-4.6.7-7.9 1-3.3.4-6.9.8-7.9 1-1 .2-4.6.6-7.9 1-3.3.3-6.8.7-7.8.9-1 .2-4.5.7-7.8 1.1-3.3.3-6.1.8-6.3 1-.2.1 3.2.6 7.5 1s8.6.9 9.5 1c.9.2 4.5.6 8 1 8.4.8 14.5 1.5 18.8 2 1.9.2 6 .7 9 1 3 .3 7.1.8 9 1 1.9.3 6.2.7 9.5 1.1 3.3.3 7.4.7 9 .9 1.7.2 6.2.6 10 1 3.9.4 7.7.9 8.6 1 .9.2 5.2.6 9.5 1s8.6.9 9.4 1c.8.2 4.4.6 8 .9 3.6.4 8.1.9 10 1.1 1.9.2 6 .7 9 1 3 .3 7.1.8 9 1 1.9.2 5.8.7 8.5.9 7.4.8 15.5 1.6 19.5 2.1 7 .8 22.6 2.5 27.5 3 4.6.4 9.9 1 18.5 2 1.9.2 6 .7 9 1 3 .3 7.1.8 9 1 1.9.2 6 .7 9 1 12.4 1.3 15.7 1.6 19 2 1.9.2 8 .9 13.5 1.5 17.7 1.9 18.9 2 22.5 2.5 1.9.2 6.2.7 9.5 1 3.2.3 6 .7 6.2.8.1.2-3.3 2.6-7.5 5.4-8.6 5.6-34.5 22.6-43.6 28.5-3.3 2.1-5.3 3.8-4.5 3.9.8.1 15.2.1 32.2.1 16.9 0 30.7.1 30.7.3 0 .2-26.6 13.7-59.2 30s-59.5 29.9-59.8 30.2c-.3.3 3.3.2 8-.2 4.7-.3 11-.8 14-1 7.9-.6 19.7-1.5 25.5-2 2.8-.3 8.4-.7 12.5-1 4.1-.3 9.8-.7 12.5-1 2.8-.2 8.6-.7 13-1 4.4-.3 10.7-.8 14-1 3.3-.3 8.5-.7 11.5-1 18.5-1.4 21.9-1.7 25.5-2 2.2-.2 8.1-.6 13-1 5-.3 10.5-.8 12.3-1 1.7-.3 3.2-.3 3.2 0 0 .2-8 6.6-17.8 14.2-9.7 7.6-18.4 14.3-19.2 15-.8.7-6.9 5.3-13.5 10.4-6.6 5-12.4 9.6-13 10.1-.9.9 14.9.4 26.5-.7 2.5-.3 7.9-.7 12-1 16.4-1 24.7-1.6 27.9-2.1 3.1-.4 2.7.1-6.1 7.3-5.2 4.3-11.2 9.2-13.4 10.9-2.1 1.8-16.3 13.2-31.4 25.4-15.1 12.3-31.8 25.7-37 29.9-5.2 4.2-9.7 7.8-10 8.1-.3.3-4.1 3.4-8.5 7-9.9 7.8-10.6 8.5-8 7.6 1.1-.4 2.9-1 4-1.2 1.1-.2 6.1-1.5 11-2.9 14.3-3.9 38.8-10.5 41-11 2.9-.6 41.5-11 60.2-16.1 5.1-1.4 10.1-2.7 11-2.8 1-.2 3.8-1 6.3-1.7s5-1.3 5.5-1.5c.6-.1 3-.7 5.4-1.3 2.3-.7 4.4-1.1 4.6-.9.2.2-1.7 2.6-4.2 5.3-7.5 8.3-19.2 21.1-23.1 25.3-22.1 23.7-27.1 29.5-24.6 28.5.9-.3 17.1-7.3 35.8-15.3 18.8-8.1 34.3-14.6 34.5-14.4.2.2-1.1 2.3-2.8 4.6-1.8 2.4-11.8 16.4-22.2 31.3-10.5 14.8-20.6 29.2-22.5 32-1.9 2.7-9 12.7-15.7 22.2-6.7 9.5-13.9 19.6-15.9 22.5-2 2.9-6 8.7-9 12.8-4.1 5.9-4.7 7.1-2.7 5.8 1.4-.9 7.5-4.6 13.5-8.3 6-3.7 12.5-7.7 14.4-9 1.9-1.2 12.5-7.8 23.5-14.5 11-6.8 21.6-13.3 23.5-14.5 1.9-1.3 13-8.1 24.5-15.2 11.6-7.1 24.8-15.3 29.4-18.2l8.4-5.3-2.2 3.8c-2.4 4.1-6.8 11.3-22.7 37.4-5.1 8.5-9.4 15.8-9.4 16.1 0 .3 12.7-4.6 28.3-10.8 28.9-11.7 29.6-12 32.2-12.8 2.1-.6 2-.5-2.9 9.8-2.4 5.1-15.5 32.8-29.1 61.7-13.6 28.9-25.8 54.7-27.2 57.5-2 4.2 7.4-4.8 59.6-57 34.2-34.1 62.1-61.5 62.1-60.8 0 .7-.4 2.2-.9 3.5-.6 1.3-2.9 8.6-5.1 16.3-2.3 7.7-5 16.7-6 20-5.4 17.9-12 40.1-12 40.8 0 .4 3-2.7 6.6-7 12.5-14.7 15.9-18.7 23.4-27.3 4.1-4.7 9.2-10.6 11.2-13l3.7-4.5-.4 5c-.2 2.8-.7 6.8-1 9-.3 2.2-.7 6.5-1 9.5-.9 9.4-2.1 20.8-3.1 28.5-.3 2.7-.7 6.6-.9 8.5-.2 1.9-.6 6-.9 9-.4 3-.9 7.5-1.1 10-.3 2.5-.7 7-1 10-.5 5.3-1.2 10.8-2 18-.6 4.3-1.6 14.3-2 19-.3 3.1-.7 7.3-2 17.5-.2 1.6-.7 6.6-1 11-.4 4.4-.9 8.3-1.2 8.7-.2.5-.2.8.1.8.2 0 2.3-3.7 4.7-8.3 6.1-12.1 24.3-47.4 31.1-60.7 3.3-6.3 10.3-19.8 15.5-30 5.3-10.2 13.3-25.7 17.9-34.5 4.5-8.8 9.6-18.7 11.3-22 1.7-3.3 3.1-5.6 3.1-5 .1.5.2 20.2.2 43.7.1 35.7.3 42.6 1.5 41.7.7-.6 1.3-1.7 1.3-2.4 0-.8.3-1.5.8-1.7.4-.1 4.3-5.7 8.7-12.3l8-12 .6 6c.4 3.3 1 9.6 1.4 14 .4 4.4.9 9.3 1.1 11 .3 3.4 1.1 11.5 1.9 19.5.3 3 .7 7.5 1 10 .2 2.5.7 7 1 10 .3 3 .7 7.1 1 9 .2 1.9.7 6.6 1 10.5.4 3.8.8 8.6 1 10.5.2 1.9.7 6.4 1 10 .3 3.6.7 7.4.9 8.5.2 1.1.7 6.3 1.1 11.5.4 5.2.9 9.7 1 10 .2.3.6 4.4 1 9 .3 4.7.8 9.8 1 11.5.4 3.4 1.3 11.3 2 19.5.3 3 .7 7.5 1 10 .5 4.7.9 8.9 2 20.5.3 3.8.8 8.1 1 9.5.2 1.4.7 6.3 1 11 .4 4.6.8 8.7 1 9 .1.3.6 4.8 1 10s.8 10.1 1 11c.2.8.6 5.1.9 9.5.4 4.4.9 8.7 1.1 9.5.2.8.7 5.5 1 10.4.4 5 .8 9.7 1 10.6.2.9.6 4.8.9 8.6.8 8.9 1.5 15.9 2 20.9.3 2.2.8 7.6 1.2 12 .3 4.4.8 8.8 1 9.9.6 3.1 1.4 3.1 1.5 0 0-1.6.2-3.8.4-4.9.2-1.1.7-4.3 1-7 .4-2.8.8-6.1 1-7.5.2-1.4.7-4.5 1-7 .3-2.5.8-5.6 1-7 .2-1.4.9-6.6 1.5-11.5 1.3-10.4 1.8-14.4 2.7-20 .7-4.5.9-5.9 1.7-13 .3-2.8.8-5.9 1-7 .2-1.1.7-4.5 1-7.6.4-3.1.8-6.5 1-7.5.2-1.1.7-4.6 1.1-7.9.4-3.2.8-6.6 1-7.5.5-2.4 1.6-11.1 2.1-16 .2-2.5.6-5.2.9-6 .2-.8.7-4.4 1-8 .4-3.6.9-7.3 1.1-8.4.2-1 .6-4.4.9-7.5.4-3.1.8-6.3 1-7.1.4-1.4.8-4.4 2-14.3.3-2.3.8-5.3 1-6.7.2-1.4.7-4.8 1-7.5.3-2.8.8-6.1 1-7.5.2-1.4.6-4.8 1-7.5.3-2.8 1-7.7 1.5-11s1.2-8.5 1.5-11.5c.3-3 1-8 1.5-11s1.2-8 1.5-11c.3-3 1.2-9.8 2-15 .8-5.2 1.7-12 2-15 .3-3 .7-6.2 1-7 .2-.8.6-4 1-7.1.3-3.1.7-6.5.9-7.5.2-1.1.7-4.4 1-7.5.4-3.1.8-6.5 1-7.5.2-1.1.7-4.4 1-7.5.4-3.1.8-6.6 1-7.6.3-1.1.7-4.4 1.1-7.4.3-3 .8-6.5 1-7.9.4-2.9 1.2-8.3 2.1-15.5.3-2.8.7-5.7.9-6.5.1-.8.6-4.4 1-8 .7-5.5.9-6.1 1.6-3.7.4 1.5 1 4.9 1.4 7.5.3 2.6.8 5.4 1 6.2.2.8.7 3.1 1 5 .3 1.9.8 4.2 1 5 .2.8.6 3.1.9 5 .6 4 4.1 24.1 5.5 31.3 1 5.4 2.1 7.2 2.2 3.6 0-1.3.2-3.1.4-3.9.1-.8.6-3.5.9-6 .4-2.5.9-5.6 1.1-7 .8-4.2 1.7-9.4 2-11.5.1-1.1.8-4.9 1.3-8.5.6-3.6 1.4-8.3 1.7-10.5.3-2.3.7-5 .9-6 .2-1.1.9-5.6 1.6-10 .7-4.4 1.6-8.6 1.9-9.3.4-.6 5.4 9.5 11.1 22.5 5.7 13.1 11.6 26.5 13.1 29.8 1.5 3.3 6.9 15.4 11.9 27 5.1 11.5 9.8 22.3 10.6 24 9.2 20.8 17.4 39.7 17.4 40.5 0 .6.5 1 1.1 1 .6 0 .8-1.1.5-2.7-1-4.5-1.3-6.5-2-11.8-.4-2.8-.9-6.1-1.1-7.5-.3-1.4-.7-4.1-.9-6-.3-2-.7-4.7-1-6-.3-1.4-.8-4.5-1.1-7-.3-2.5-.7-5.6-.9-7-.3-1.4-.7-4.3-1.1-6.5-.3-2.2-1-6.7-1.5-10s-1.2-7.8-1.5-10c-.3-2.2-1.4-9.6-2.5-16.5-1-6.9-2.2-14.3-2.5-16.5-.3-2.3-.7-5-.9-6.1-.2-1.2-.7-4.5-1.1-7.5-.3-3-.8-6.1-1-6.9-.2-.8-.7-3.5-1-6-.3-2.5-1-7-1.5-10s-1.2-7.8-1.6-10.5c-.7-5.6-1-7.7-1.8-12-.3-1.7-.8-5.3-1.2-8-.3-2.8-.8-5.3-1.1-5.8-.2-.4.1-.7.6-.7.6 0 1.1.3 1.1.7 0 .5 1.3 2.1 2.8 3.8 1.5 1.6 7.7 9.1 13.9 16.5 6.1 7.4 12 14.5 13.1 15.8 1.1 1.3 3.5 4.2 5.4 6.4 11.4 14.2 33.8 40.8 33.8 40.4 0-.3-1.6-7-3.6-14.9-1.9-7.8-3.7-15.2-4-16.4-.2-1.2-.9-3.4-1.4-4.8-.5-1.4-.7-2.5-.5-2.5.2 0 0-1.1-.5-2.6-.6-1.4-1.2-3.7-1.5-5.2-.3-1.5-2.3-9.7-4.4-18.2l-3.9-15.4 4.7 5.1c2.5 2.8 5.7 6.4 7.1 7.9 20.4 23.4 29.6 34 30 34.4.3.3 11.8 13.3 25.5 29s25.4 29 26 29.6c.5.6 4.2 4.7 8 9.2 3.9 4.4 7.1 7.9 7.2 7.8.2-.1-1.9-6.1-4.6-13.2-8.6-22.6-20.3-53.7-22.4-59.4-1.1-3-9.5-25.4-18.7-49.8-9.2-24.3-16.4-44.1-16-44 .7.3 43.8 36.5 45 37.8.6.6 25.6 21.7 28.3 23.9 1.7 1.4 1.6.9-6-15.9-1.2-2.5-7.6-16.7-14.3-31.5-6.7-14.9-12.4-27.3-12.7-27.8-.8-1.3.4-.7 3.9 2.1 1.9 1.5 5 3.8 6.8 5.2 1.9 1.4 5.2 4.1 7.5 6 2.3 1.9 5.6 4.6 7.5 6 2.9 2.2 13 10.3 18.5 14.8 1.1 1 5.2 4.2 9 7.2 3.9 3 7.2 5.7 7.5 6 .3.3 3.6 3 7.5 6 3.8 3 7.7 6 8.5 6.7 4.5 3.6 15.8 12.7 17.5 14.1 1.1 1 5.2 4.2 9 7.2 3.9 3 7.2 5.7 7.5 6 .3.3 2.5 2.1 5 4s4.7 3.7 5 4c.3.3 2.3 1.8 4.5 3.5 2.2 1.6 4.6 3.6 5.3 4.5 4 4.5-1.2-4.1-18.2-30-10.2-15.7-19-29.2-19.6-30-.5-.8-4-6.2-7.8-12-7.7-12-18.4-28.4-32.3-49.8-5.3-8.1-13.5-20.7-18.3-28.1-4.8-7.3-8.5-13.5-8.3-13.7.2-.2 2.6.7 5.3 2 6.6 3.2 14.9 6.9 27.4 12.6 5.8 2.6 14.6 6.7 19.5 9 5 2.3 15.5 7.1 23.4 10.6 7.8 3.6 16.5 7.6 19.2 9 2.7 1.3 4.9 2.3 4.9 2.1 0-.4-19.6-19.8-25-24.7-7.1-6.5-21-20.3-20.7-20.6.1-.1 16.2 5.1 35.7 11.7 85.9 29.2 97.3 33 97.6 32.6.2-.2-3.1-3.2-7.3-6.8-4.3-3.5-22.4-18.7-40.3-33.7-17.9-15.1-33.4-28.1-34.5-29-41.7-35.1-57.5-48.4-57.5-48.8 0-.3.3-.3.8-.1.4.3 5.2 1.2 10.7 2.2 5.5.9 11.4 1.8 13 2.1 2.6.5 28.7 4.8 35.5 5.9 1.4.2 12 2 23.7 4 11.6 1.9 22 3.5 23 3.5 1.5 0 1.5-.2-.4-1.3-2.2-1.1-31.7-21.2-33.8-22.9-1.9-1.6-8.1-5.7-13.2-9-2.9-1.8-5.3-3.5-5.3-3.9 0-.3 30.8-.6 68.5-.6s68.7-.2 69-.4c.2-.3-5.1-2.9-11.8-5.9-29.3-12.9-120.7-53.3-126.2-55.9-3.3-1.5-9.1-4.1-12.8-5.7l-6.8-2.9 58.7-.5 58.7-.5-16.3-11.3c-9-6.1-15.9-11.2-15.4-11.3 3.2-.3 8.1-.7 16.9-1.3 5.5-.4 11.1-.9 12.5-1.1 1.4-.2 6.8-.6 12-1 5.2-.3 11.1-.8 13-1 1.9-.2 7.1-.6 11.5-.9 13.4-1.1 20.8-1.7 25.5-2.2 2.5-.2 7.9-.6 12-.9 4.1-.3 9.5-.7 12-1 2.5-.2 8.1-.7 12.5-1 7.4-.5 10.3-.8 24-2 10.3-.9 17.2-1.4 25.5-2 4.7-.3 10.5-.8 13-1 6.4-.7 24-2.1 36-3 6.1-.4 19.7-1.6 24-2 1.9-.2 7.6-.6 12.5-1 5-.4 10.6-.8 12.5-1 1.9-.2 7.6-.6 12.5-1 5-.3 10.1-.8 11.5-1 1.4-.2 7.5-.7 13.5-1 6.1-.4 11.3-.9 11.6-1 .3-.2 3.5-.5 7.2-.6 3.7-.1 6.7-.5 6.7-.9s-3.3-1.1-7.2-1.5c-10.4-1-14.8-1.4-19.3-2-2.2-.3-6.2-.8-9-1.1-2.7-.3-6.1-.7-7.5-1-1.4-.2-5.4-.6-9-.9-3.6-.3-7.8-.8-9.5-1.2-1.6-.3-4.9-.7-7.2-.8-2.4-.2-6-.6-8.1-.9-2-.3-6.2-.8-9.2-1.1-3-.3-7.3-.8-9.5-1.1-6.9-.8-11.8-1.4-17-1.9-2.7-.3-6.7-.8-8.7-1.1-2.1-.3-5.7-.7-8.1-.9-2.3-.1-5.6-.5-7.2-.8-1.7-.4-5.9-.9-9.5-1.2-3.6-.3-7.5-.7-8.7-.9-1.2-.3-5-.7-8.5-1.1-3.5-.3-7.6-.8-9.3-1-1.6-.3-5.1-.7-7.7-1-2.7-.3-6.8-.7-9.3-1-2.5-.3-6.4-.7-8.7-1-5.5-.6-13.5-1.5-17.3-2-1.6-.2-6.1-.7-10-1.1-3.8-.4-7.2-.8-7.5-.9-.3-.1-4.1-.5-8.5-.9-4.4-.5-8.7-1-9.5-1.1-.9-.2-4.3-.6-7.5-1-3.3-.3-7.3-.8-9-1-1.6-.2-5.7-.6-9-1s-7.1-.8-8.5-1c-1.4-.2-5.2-.7-8.5-1-5.4-.5-7.8-.8-16.5-2-1.4-.2-5.6-.6-9.3-1-3.7-.3-7.6-.8-8.5-1-.9-.1-4.6-.6-8.2-1-3.6-.3-7.6-.8-9-1-1.4-.2-7.2-.8-13-1.5s-10.6-1.4-10.8-1.5c-.2-.2 10-7.4 22.7-16 12.7-8.7 22.9-16.1 22.7-16.4-.2-.3-15.8-.6-34.5-.5-18.8.1-34.1 0-34.1-.2 0-.1 1.2-.9 2.8-1.7 1.5-.8 5.6-3.1 9.2-5.2 3.6-2.1 8.5-4.9 11-6.2 2.5-1.3 5.2-2.8 6-3.3 3.9-2.4 31.2-18 31.6-18 .2 0 2.1-1.1 4.2-2.4 2-1.3 13-7.6 24.5-14.1 11.4-6.4 20.7-11.9 20.7-12.1 0-.2-1.2-.2-2.7 0-1.6.2-6.8.7-11.8 1.1-4.9.3-10.6.8-12.5 1-1.9.2-7.3.7-12 1-4.7.4-9.6.8-11 1-1.4.2-6.8.7-12 1-5.2.4-10.2.8-11 1-.8.2-5.8.6-11 1s-10.8.8-12.5.9c-1.6.2-6.6.6-11 1s-9.8.9-12 1.1c-2.2.3-7.8.7-12.5 1-4.7.3-9.8.8-11.5 1.1-3.3.6-3.3.5 4-5.2 2.8-2.1 5.2-4.1 5.5-4.4.3-.3 2.7-2.4 5.5-4.5 2.7-2.2 6.1-5 7.5-6.2 1.4-1.2 7.7-6.3 14.1-11.5 30-24.2 40.9-33.1 40.6-33.4-.2-.3-19.9 5-43.7 11.7-5.8 1.6-11.4 3.2-12.5 3.4-1.1.3-4.3 1.1-7 2-10.3 3.1-12.7 5.4 37-34.5 15.4-12.4 28.2-22.7 28.5-23 .3-.3 2.8-2.3 5.5-4.5 2.8-2.1 5.2-4.2 5.5-4.5.3-.3 9.4-7.6 20.3-16.3 10.8-8.7 19.7-16 19.7-16.2 0-.5-7.4 2-10.5 3.5-1.1.5-12.1 4.7-24.5 9.4-12.4 4.6-38.7 14.6-58.5 22.1-19.8 7.6-39.6 15.1-44 16.7-11.9 4.5-13.8 5.2-29.3 11.1-9.3 3.5-13.8 4.9-13 3.8 2.2-2.8 19.2-23.6 19.8-24.1.3-.3 5-5.9 10.4-12.5s10.8-13.1 11.9-14.5c1.2-1.4 6.8-8.1 12.5-15s11.6-14 13.2-15.9c1.6-1.9 2.8-3.7 2.6-3.9-.4-.3-18.9 9.6-34.6 18.5-1.9 1.1-7.5 4.2-12.5 6.8-4.9 2.7-11.2 6.1-13.8 7.7-2.6 1.5-5 2.8-5.2 2.8-.2 0-2.7 1.3-5.5 3-2.7 1.6-5 2.8-5 2.7 0-.3 16.8-23.3 20.2-27.9.7-.9 2-2.6 2.8-3.9.8-1.2 2.4-3.4 3.6-4.8 1.1-1.4 5.6-7.6 9.9-13.6 4.3-6.1 8.2-11.2 8.5-11.5.3-.3 3.8-5 7.8-10.5 8.5-11.8 17.9-24.7 26.6-36.5 13.8-18.8 22.3-30.6 23-31.8.6-1-10.2 6.4-30.9 21.4-1.1.8-13.9 9.9-28.5 20.2-14.6 10.4-40.7 28.9-58 41.3-17.3 12.3-32.8 23.2-34.5 24.3-1.6 1-3.2 2.1-3.5 2.5-.3.3-2.7 2.1-5.3 3.9l-4.8 3.4 1.9-3.4c1.1-1.8 10.9-19.1 21.9-38.3 11-19.3 21.5-37.7 23.3-41 1.8-3.3 4.3-7.6 5.5-9.5 1.2-1.9 2.8-4.6 3.5-6 1.3-2.6.8-2.2-8.5 6.5-4.7 4.4-24.2 22.5-27 25.1-1.6 1.5-8.6 7.9-15.4 14.3-6.8 6.4-12.9 12-13.5 12.6-3.9 3.4-5.8 4.8-5.2 3.8.8-1.4 6.6-17.2 7-18.8.1-.6.7-2.4 1.3-4 .7-1.7 5.1-13.8 9.8-27 4.7-13.2 10.4-28.7 12.5-34.5 3.7-10.1 12.1-33.5 17.5-49 1.5-4.1 3-8.4 3.5-9.5.4-1.1 1.6-4 2.5-6.5 1.6-4.5 1.6-4.5-.3-2.5-1.1 1.1-14.3 16.8-29.3 35-15.1 18.1-28.1 33.9-29.1 35-9.6 11.4-49 58.9-51.1 61.6-3.1 4-3.1 4.1-1.2-7.6.9-5 1.8-10.5 2.1-12.4.3-1.8.8-4.3 1-5.5.2-1.1 1.3-7.5 2.4-14.1 1.1-6.6 2.2-13 2.4-14.2.3-1.1.8-4.3 1.2-7 .5-2.6.9-5 .9-5.3.1-.3.5-2.8.9-5.5.4-2.8 1-6.4 1.3-8 .3-1.7.7-4 .8-5.2.2-1.1.5-2.9.9-4 .8-2.9 1.7-10.3 1.2-10.3-.4 0-27.4 35.1-35 45.6-2.2 3-4.1 5.2-4.3 5-.3-.2.1-5.5.7-11.8.6-6.2 1.3-12.9 1.5-14.8.2-1.9.6-6.7.9-10.5.4-3.9.8-8.4 1.1-10 .2-1.7.7-6.2 1-10 .4-3.9.8-8.6 1-10.5.2-1.9.7-6.2 1-9.5.3-3.3.7-8 1-10.5.2-2.5.9-9.2 1.5-15 .6-5.8 1.2-12.3 1.5-14.5.3-2.2.7-7.2 1-11 .6-6.8.9-10.5 1.9-19.3.3-2.3.3-4.2.1-4.2-.3 0-2.7 4.6-5.4 10.2-2.7 5.7-9.6 20-15.3 31.8-5.8 11.8-14.2 29.1-18.8 38.5-4.6 9.3-13.7 28-20.2 41.5-6.6 13.5-14 28.7-16.5 33.7-2.4 5.1-4.5 9.3-4.6 9.3-.1 0-.2-22.1-.2-49.1v-49l-4.5 4.8c-2.5 2.6-8.8 9.5-14.1 15.2-8.8 9.6-9.5 10.2-9.6 7.5 0-3.5-1.2-30.5-1.8-42.4-.2-4.7-.7-14.6-1-22-.3-7.4-.8-16.9-1-21-.4-7.2-1.4-27.4-2-43-.4-9.1-1.4-28.5-2-40-.2-4.7-.7-14.6-1-22-.3-7.4-.7-17.3-1-22-.2-4.7-.7-14.1-1-21-.3-6.9-.7-16.1-.9-20.5-.3-4.4-.8-14.3-1.1-22-.4-7.7-.8-16.9-1-20.4-.6-10-1.8-40.4-1.7-42.4.1-1.8-.7-2.4-.9-.7z"/></svg>