<svg xmlns="http://www.w3.org/2000/svg" xmlns:xlink="http://www.w3.org/1999/xlink" width="435" height="250.103" viewBox="0 0 435 250.103"><defs><style>.a{opacity:0.2;}.b{fill:#3f3d56;}.c{fill:#ec741d;}.d,.e,.r{opacity:0.1;}.e{fill:#6c63ff;}.f{fill:url(#a);}.g{fill:#a1616a;}.h{fill:#46455b;}.i{fill:#bbbdc8;}.j{fill:url(#b);}.k{fill:#99d55c;}.l{fill:#f6987e;}.m{fill:#fc4a4a;}.n{fill:#fda8a8;}.o{fill:#eeeff3;}.p{fill:#afafaa;}.q{fill:#ffd566;}</style><linearGradient id="a" x1="0.5" y1="1" x2="0.5" gradientUnits="objectBoundingBox"><stop offset="0" stop-color="gray" stop-opacity="0.251"/><stop offset="0.54" stop-color="gray" stop-opacity="0.122"/><stop offset="1" stop-color="gray" stop-opacity="0.102"/></linearGradient><linearGradient id="b" x1="0.5" y1="1" x2="0.5" y2="0" xlink:href="#a"/></defs><g transform="translate(-261 -758.897)"><g transform="translate(260.698 758.896)"><g class="a" transform="translate(71.799 32.045)"><path class="b" d="M432.889,730.661a13.27,13.27,0,0,0,.868,2.246q8.377-2.821,16.939-5.409c-.048-.2-.1-.417-.157-.627a12.238,12.238,0,0,0-3.56-5.8,9.226,9.226,0,0,0-8.084-2.456,8.012,8.012,0,0,0-5.886,5.443A11.113,11.113,0,0,0,432.889,730.661Z" transform="translate(-354.253 -533.114)"/><path class="b" d="M8.842.14c4.99.152,9.2,4.985,9.4,10.794S14.57,21.327,9.58,21.175.381,16.19.177,10.382,3.853-.013,8.842.14Z" transform="translate(72.694 174.858) rotate(-12.59)"/><path class="b" d="M8.842.14c4.99.152,9.2,4.985,9.4,10.794S14.57,21.327,9.58,21.175.381,16.19.177,10.382,3.853-.013,8.842.14Z" transform="translate(69.253 162.45) rotate(-12.59)"/><path class="b" d="M8.842.14c4.99.152,9.2,4.985,9.4,10.794S14.57,21.327,9.58,21.175.381,16.19.177,10.382,3.853-.013,8.842.14Z" transform="translate(65.806 150.05) rotate(-12.59)"/><path class="b" d="M8.842.14c4.99.152,9.2,4.985,9.4,10.794S14.57,21.327,9.58,21.175.381,16.19.177,10.382,3.853-.013,8.842.14Z" transform="translate(62.358 137.646) rotate(-12.59)"/><path class="c" d="M320.96,234.577a35.1,35.1,0,0,0,2.113-4.954l-24.107,1.626,25.127-5.213a33.617,33.617,0,0,0-.446-16.357,36.185,36.185,0,0,0-6.923-13.24l-29.41,22.548L312.776,192.3c-10.394-9.515-26.115-14.042-41.741-10.68-23.347,5.006-37.655,25.69-31.957,46.2A37.955,37.955,0,0,0,254.5,248.833a35.172,35.172,0,0,0-2.945,7.8l33.918,7.283-34.722-2.58a33.694,33.694,0,0,0,1.077,12.4,37.991,37.991,0,0,0,15.428,21.015,33.8,33.8,0,0,0-2.668,24.9c5.7,20.509,29.241,33.073,52.589,28.071s37.655-25.687,31.957-46.2a37.991,37.991,0,0,0-15.428-21.015,33.8,33.8,0,0,0,2.668-24.9A37.954,37.954,0,0,0,320.96,234.577Z" transform="translate(-237.827 -180.514)"/><path class="d" d="M272.683,447.655a37.99,37.99,0,0,0,15.428,21.015,33.8,33.8,0,0,0-2.668,24.9c5.7,20.509,29.241,33.073,52.589,28.071s37.655-25.687,31.957-46.2a37.991,37.991,0,0,0-15.428-21.015C358.475,446.9,271.526,443.5,272.683,447.655Z" transform="translate(-258.672 -354.445)"/></g><g class="a" transform="translate(230.952 0.001)"><path class="b" d="M702.971,722.76a13.833,13.833,0,0,0-.173,2.708q10.506.145,21.093.606c.048-.238.1-.479.137-.723a12.469,12.469,0,0,0-.984-7.486,9.7,9.7,0,0,0-7.561-5.633,10.73,10.73,0,0,0-9.1,3.569A13.4,13.4,0,0,0,702.971,722.76Z" transform="translate(-675.131 -496.956)"/><path class="b" d="M11.876.134c6.617.154,12.077,5.029,12.195,10.888S18.921,21.5,12.3,21.35.227,16.321.109,10.462,5.26-.021,11.876.134Z" transform="translate(28.45 223.1) rotate(-81.82)"/><path class="b" d="M11.876.134c6.617.154,12.077,5.029,12.195,10.888S18.921,21.5,12.3,21.35.227,16.321.109,10.462,5.26-.021,11.876.134Z" transform="translate(30.871 208.653) rotate(-81.82)"/><path class="b" d="M11.876.134c6.617.154,12.077,5.029,12.195,10.888S18.921,21.5,12.3,21.35.227,16.321.109,10.462,5.26-.021,11.876.134Z" transform="translate(33.291 194.21) rotate(-81.82)"/><path class="b" d="M11.876.134c6.617.154,12.077,5.029,12.195,10.888S18.921,21.5,12.3,21.35.227,16.321.109,10.462,5.26-.021,11.876.134Z" transform="translate(35.715 179.763) rotate(-81.82)"/><path class="c" d="M737.99,162.818a46.417,46.417,0,0,0,4.749-4.479l-27.011-7.276,29.888,3.876a38.614,38.614,0,0,0,6.706-34.148l-43.135,12.9,40.933-18.776c-7.106-15.174-23.5-25.676-42.483-27.217s-37.384,6.135-47.686,19.895-10.782,31.3-1.244,45.46a46.276,46.276,0,0,0-7.059,7.176l33.231,20.423-36.445-15.737a38.315,38.315,0,0,0,1.31,41.617c-19.235,15.725-21.145,41.486-4.386,59.173s46.555,21.359,68.444,8.435,28.517-38.1,15.225-57.837c17.024-13.917,20.728-36.017,8.964-53.482Z" transform="translate(-633.95 -87.501)"/><path class="d" d="M643.432,350.67a38.377,38.377,0,0,0,6.312,28.071c-19.235,15.725-21.145,41.486-4.387,59.173s46.556,21.359,68.444,8.435,28.517-38.1,15.225-57.837C737.022,381.983,644.248,345.816,643.432,350.67Z" transform="translate(-633.95 -259.712)"/></g><ellipse class="e" cx="217.5" cy="10.5" rx="217.5" ry="10.5" transform="translate(0.302 229.104)"/><path class="f" d="M422.222,342.378c-1.025-4.6-2.17-9.2-2.358-13.877a76.527,76.527,0,0,0-.3-8.31,37.439,37.439,0,0,0-.916-4l-1.422-5.309a7.627,7.627,0,0,0-.137-3.056,9.609,9.609,0,0,0-.566-1.554,23.27,23.27,0,0,0,3.258-5.168,4.522,4.522,0,0,0,.554-2.58c-.289-1.678-2.186-2.784-3.949-3.61a9.626,9.626,0,0,0-3.415-1.061,5.984,5.984,0,0,0-4.5,1.723,7.241,7.241,0,0,1,.289-4.076c-1.049-.4-2.105-.782-3.17-1.151a21.424,21.424,0,0,1-.161-3.586c.024-1.437.052-2.887.149-4.327,5.852-1.831,9.758-6.589,9.8-11.931v-.438a9.066,9.066,0,0,0,1.037-7.951c-1.177-3.445-4.255-6.284-7.963-8.038a31.129,31.129,0,0,0-12.262-2.625,20.521,20.521,0,0,0-4.267.231,22.857,22.857,0,0,0-4.347,1.378,18.934,18.934,0,0,0-5.858,3.211c-2.76,2.525-3.379,6.236-3.078,9.646.4,4.479,2.145,8.813,4.162,12.981a15.387,15.387,0,0,0,2.491,3.952,2.96,2.96,0,0,0,3.524.327,28.392,28.392,0,0,0-.088,3.307,11.017,11.017,0,0,0-6.059,1.3c-.8.493-1.567,1.268-1.39,2.1a2.186,2.186,0,0,1,2.194,1.671,3.265,3.265,0,0,1-.759,2.067c-.181.282-.362.568-.546.851-1.728,1.585-3.5,3.569-3.656,5.536q-.423.034-.84.107c-1.567.248-3.126.706-4.665,1.051l-11.137,2.515-2.752.654-4.42,1a34.735,34.735,0,0,0-8.172,2.56c-2.5,1.275-4.612,3.276-5.115,5.688-.249,1.2-.1,2.446-.4,3.635a.545.545,0,0,1-.04.159,10.74,10.74,0,0,1-1.025,2.174c-2.5,4.51-4.271,9.426-3.937,14.39a36.811,36.811,0,0,0,2.178,8.957q1.531,4.5,3.021,9.006a42.838,42.838,0,0,0,2.487,6.3,25,25,0,0,0,7.445,8.534,13.453,13.453,0,0,0,2.973,1.723,12.431,12.431,0,0,0,5.223.727c.482-.028.956-.072,1.426-.138a28.444,28.444,0,0,0,9.623-3.5q1.852-1.006,3.616-2.119a17.235,17.235,0,0,0,.8,3.418,5.35,5.35,0,0,1,.478,2.353c-.145,1.109-1.085,2.019-1.571,3.059-1.033,2.2.028,4.648.2,7a22.248,22.248,0,0,1-.964,6.573,59.307,59.307,0,0,0-1.483,11,28.6,28.6,0,0,1-.321,4.182c-.374,1.957-1.25,3.845-1.4,5.822-.233,3.08,1.318,6.094,1.177,9.178-.165,3.621-2.644,7.138-1.78,10.68a1.389,1.389,0,0,0,.876,1.072l-.233.183c-.711.565-1.4,1.609-.595,2.067a1.757,1.757,0,0,0,.607.179c1.25.224,2.507.427,3.765.617a8.657,8.657,0,0,0,.434,2.949c.229.141.462.269.7.389a.726.726,0,0,0,.253,1.034,1.763,1.763,0,0,0,.607.179,152.413,152.413,0,0,0,31.479,2.239,13.008,13.008,0,0,0,5.472-1.006c1.611-.827,2.7-2.587,1.933-4.038-.679-1.282-2.455-1.836-4.05-2.263l-1.872-.5a2.411,2.411,0,0,0,.169-2.412c-.679-1.282-2.455-1.836-4.05-2.263l-4.311-1.147a4.577,4.577,0,0,1-1.567-.63,7.755,7.755,0,0,1-.852-.848,4.987,4.987,0,0,0-2.35-1.264,13.459,13.459,0,0,1,.06-2.35l1.205-12.475c.269-2.825.534-5.705-.233-8.465a6.586,6.586,0,0,1-.5-3.39c.47-1.833,2.72-2.853,4.255-4.213,2.314-2.067,3.033-5.006,3.564-7.8a135.418,135.418,0,0,0,2.057-34.937,75.088,75.088,0,0,1,14.793-2.039,1.493,1.493,0,0,0,1.535-1.058A3.668,3.668,0,0,0,422.222,342.378Zm-24.046.61c.028-.121.06-.241.084-.362l.333.365Z" transform="translate(-224.734 -194.95)"/><path class="g" d="M467.4,323.983c-.1,1.2-.6,2.35-.779,3.545-.2,1.316-.024,2.656-.125,3.983a4.729,4.729,0,0,1-1.724,3.586,92.947,92.947,0,0,1,20.057,3.721c-1.957-2.067-2.009-4.954-1.961-7.607.064-3.924.145-7.924,1.639-11.627a38.375,38.375,0,0,0-13.556-.152c-.972.165-3.917.062-4.355.841C466.277,320.844,467.47,323.115,467.4,323.983Z" transform="translate(-301.791 -239.18)"/><path class="d" d="M467.4,323.983c-.1,1.2-.6,2.35-.779,3.545-.2,1.316-.024,2.656-.125,3.983a4.729,4.729,0,0,1-1.724,3.586,92.947,92.947,0,0,1,20.057,3.721c-1.957-2.067-2.009-4.954-1.961-7.607.064-3.924.145-7.924,1.639-11.627a38.375,38.375,0,0,0-13.556-.152c-.972.165-3.917.062-4.355.841C466.277,320.844,467.47,323.115,467.4,323.983Z" transform="translate(-301.791 -239.18)"/><path class="h" d="M449.1,745.068a7.466,7.466,0,0,0,.8.865,4.357,4.357,0,0,0,1.531.63l4.211,1.147c1.563.427,3.3.978,3.962,2.26.747,1.447-.317,3.207-1.892,4.031a12.513,12.513,0,0,1-5.348,1.006,146.163,146.163,0,0,1-30.772-2.236,1.789,1.789,0,0,1-.591-.179c-.8-.465-.116-1.506.579-2.067,2.712-2.2,5.661-4.517,9.353-5.026,1.941-.272,3.889-.162,5.818-.558,1.386-.286,2.7-.779,4.078-1.071C443.4,743.328,447.257,743.135,449.1,745.068Z" transform="translate(-275.391 -517.499)"/><path class="d" d="M449.1,745.068a7.466,7.466,0,0,0,.8.865,4.357,4.357,0,0,0,1.531.63l4.211,1.147c1.563.427,3.3.978,3.962,2.26.747,1.447-.317,3.207-1.892,4.031a12.513,12.513,0,0,1-5.348,1.006,146.163,146.163,0,0,1-30.772-2.236,1.789,1.789,0,0,1-.591-.179c-.8-.465-.116-1.506.579-2.067,2.712-2.2,5.661-4.517,9.353-5.026,1.941-.272,3.889-.162,5.818-.558,1.386-.286,2.7-.779,4.078-1.071C443.4,743.328,447.257,743.135,449.1,745.068Z" transform="translate(-275.391 -517.499)"/><path class="i" d="M428.186,516.636a18.975,18.975,0,0,0-.362,14.645c-1.4-.131-2.009,1.5-1.973,2.708a17.436,17.436,0,0,0,.888,4.989,5.46,5.46,0,0,1,.47,2.35c-.145,1.109-1.061,2.019-1.539,3.056-1,2.195.028,4.641.2,6.994a22.571,22.571,0,0,1-.948,6.566,60.486,60.486,0,0,0-1.446,10.98,28.478,28.478,0,0,1-.317,4.179c-.362,1.957-1.205,3.841-1.366,5.815-.229,3.073,1.286,6.088,1.149,9.167-.161,3.614-2.587,7.128-1.74,10.68.121.5.446,1.089,1.045,1.1,6.059.065,11.72-1.378,17.714-.624.611-11.893,1.205-23.84,3.937-35.516,2.411-10.394,6.5-20.671,6.115-31.268-.221-6.06-1.9-12-2.921-18A31.73,31.73,0,0,0,428.186,516.636Z" transform="translate(-275.621 -366.989)"/><path class="d" d="M428.186,516.636a18.975,18.975,0,0,0-.362,14.645c-1.4-.131-2.009,1.5-1.973,2.708a17.436,17.436,0,0,0,.888,4.989,5.46,5.46,0,0,1,.47,2.35c-.145,1.109-1.061,2.019-1.539,3.056-1,2.195.028,4.641.2,6.994a22.571,22.571,0,0,1-.948,6.566,60.486,60.486,0,0,0-1.446,10.98,28.478,28.478,0,0,1-.317,4.179c-.362,1.957-1.205,3.841-1.366,5.815-.229,3.073,1.286,6.088,1.149,9.167-.161,3.614-2.587,7.128-1.74,10.68.121.5.446,1.089,1.045,1.1,6.059.065,11.72-1.378,17.714-.624.611-11.893,1.205-23.84,3.937-35.516,2.411-10.394,6.5-20.671,6.115-31.268-.221-6.06-1.9-12-2.921-18A31.73,31.73,0,0,0,428.186,516.636Z" transform="translate(-275.621 -366.989)"/><path class="h" d="M463.1,760.068a7.464,7.464,0,0,0,.8.865,4.358,4.358,0,0,0,1.531.63l4.211,1.147c1.563.427,3.3.978,3.962,2.26.747,1.447-.317,3.208-1.892,4.031a12.513,12.513,0,0,1-5.348,1.006,146.159,146.159,0,0,1-30.772-2.236,1.786,1.786,0,0,1-.591-.179c-.8-.465-.117-1.506.579-2.067,2.712-2.2,5.661-4.517,9.353-5.026,1.941-.272,3.889-.162,5.818-.558,1.386-.286,2.7-.779,4.078-1.071C457.4,758.328,461.257,758.135,463.1,760.068Z" transform="translate(-283.766 -527.331)"/><path class="i" d="M437.008,518.363a7.9,7.9,0,0,0-1.8,6.153,22.838,22.838,0,0,0,1.888,6.27c-1.1.872-.876,2.374-.731,3.655.526,4.761-1.4,9.512-1.121,14.287.116,2.008.627,3.989.747,6a33.145,33.145,0,0,1-.5,6.57,336.934,336.934,0,0,0-3.214,42.062,11.726,11.726,0,0,0,.4,3.852c2.921,1.843,6.589,2.091,10.125,1.4a41.765,41.765,0,0,0,9.932-3.741,31.655,31.655,0,0,0,4.918-2.722,2.3,2.3,0,0,0,.988-1.164c.337-1.378-1.9-2-3.178-2.894-1.864-1.3-1.836-3.7-1.643-5.757l1.165-12.458a23.707,23.707,0,0,0-.225-8.454,6.822,6.822,0,0,1-.494-3.387c.458-1.826,2.66-2.846,4.158-4.207,2.266-2.067,2.965-5,3.487-7.789A138.334,138.334,0,0,0,463.474,516c-2.953.879-6.453.4-9.566.606s-6.207,1.1-9.361,1.171C441.918,517.829,438.624,516.586,437.008,518.363Z" transform="translate(-282.354 -368.375)"/><ellipse class="g" cx="14.5" cy="13" rx="14.5" ry="13" transform="translate(161.302 63.104)"/><path class="h" d="M464.267,358.8a89.339,89.339,0,0,0-14.83-4.389c-3.592-.734-7.694-1.175-10.7.668-.8.493-1.531,1.268-1.358,2.1a2.135,2.135,0,0,1,2.142,1.667,3.3,3.3,0,0,1-.739,2.067l-3.467,5.512a20.324,20.324,0,0,0-1.708,3.1,18.555,18.555,0,0,0-1,5.471l-.4,5a51.392,51.392,0,0,0-.169,9.464c.249,2.374.828,4.758.434,7.118-.317,1.9-1.254,3.679-1.78,5.547-.988,3.514-.538,7.366-2.455,10.59a4.292,4.292,0,0,1,2.487-.193c5.818.92,10.394,4.858,16.043,6.363,1.426-1.785,3.359-3.1,4.954-4.761a8.656,8.656,0,0,0,2.278-4.32,16.107,16.107,0,0,1,2.949,4.052,2.632,2.632,0,0,0,.643,1.009c.759.634,2.009.389,3.025.124a71.843,71.843,0,0,1,15.336-2.229,1.464,1.464,0,0,0,1.5-1.058,3.676,3.676,0,0,0-.04-2.122c-1-4.592-2.117-9.192-2.3-13.86a78.411,78.411,0,0,0-.3-8.3,38.212,38.212,0,0,0-.9-4L471.053,372.5c-.161-.61-.924-1.009-1.25-1.571-1.318-2.288-3.837-3.941-5.139-6.236A7.107,7.107,0,0,1,464.267,358.8Z" transform="translate(-279.938 -262.042)"/><path class="b" d="M453.084,276.379a.751.751,0,0,1,.141-.51,1.392,1.392,0,0,1,.579-.307,2.546,2.546,0,0,0,1.7-2.794l1.406-.251.044-4.2c2.089-.992,4.938-.241,6.9-1.409a8.19,8.19,0,0,0,2.346-2.784,4.18,4.18,0,0,1,3.021-2.088,6.448,6.448,0,0,0,.462,6.246,7.93,7.93,0,0,0,3.387-2.715l.7,3.445a.806.806,0,0,0,.3.562c.366.231.86-.059,1.181-.345l1.82-1.533a19.082,19.082,0,0,1,1.563,5.13,9.125,9.125,0,0,0,2.768-9.915c-1.149-3.431-4.158-6.274-7.782-8.027a29.839,29.839,0,0,0-11.985-2.622,19.823,19.823,0,0,0-4.17.231,21.936,21.936,0,0,0-4.251,1.378,18.324,18.324,0,0,0-5.725,3.2c-2.7,2.522-3.307,6.229-3.009,9.646.4,4.479,2.1,8.8,4.07,12.964a15.371,15.371,0,0,0,2.435,3.948c1.627,1.767,5.625.3,5.115-3.194C455.744,277.946,453.084,278.907,453.084,276.379Z" transform="translate(-289.61 -195.483)"/><path class="c" d="M396.765,436.916a57.772,57.772,0,0,1-22.279,21.567,27.447,27.447,0,0,1-9.406,3.5c-.462.065-.924.11-1.394.138a11.953,11.953,0,0,1-5.091-.741,13.1,13.1,0,0,1-2.909-1.723,24.823,24.823,0,0,1-7.276-8.52,43.369,43.369,0,0,1-2.431-6.3q-1.478-4.5-2.949-9a37.036,37.036,0,0,1-2.129-8.957c-.325-4.958,1.41-9.867,3.849-14.37a10.925,10.925,0,0,0,1-2.17.825.825,0,0,1,.04-.158c.289-1.189.141-2.432.4-3.631.49-2.412,2.563-4.41,5-5.681a33.242,33.242,0,0,1,7.991-2.556l4.311-1,2.676-.617,10.884-2.512c1.507-.345,3.029-.8,4.56-1.034,1.708-.276,1.7-.131,1.828,1.3a51.087,51.087,0,0,0,.8,7.724c.607,2.456,1.675,4.823,2.479,7.235,2.029,6.088,2.367,12.5,3.966,18.679a6.05,6.05,0,0,0,2.194,3.79c1.515,1.034,4.066,1.288,4.468,2.908A3.3,3.3,0,0,1,396.765,436.916Z" transform="translate(-227.667 -287.775)"/><path class="d" d="M365.081,494.577c-.462.065-.924.11-1.394.138a11.958,11.958,0,0,1-5.091-.727,13.1,13.1,0,0,1-2.909-1.723,24.823,24.823,0,0,1-7.276-8.52,43.368,43.368,0,0,1-2.431-6.3q-1.478-4.5-2.949-9a37.036,37.036,0,0,1-2.129-8.957c-.325-4.958,1.41-9.867,3.849-14.37a10.924,10.924,0,0,0,1-2.17.828.828,0,0,1,.04-.158c6.557.989,14.424,11.744,18.482,25.839C367.262,479.167,367.391,488.872,365.081,494.577Z" transform="translate(-227.667 -320.387)"/><path class="d" d="M410.57,431.864l-1.1.162c-1.129-2.543-2.254-5.089-3.576-7.562-.687-1.292-1.43-2.567-2.009-3.9-2.17-5.119-1.8-11.193-5.822-15.41a5.779,5.779,0,0,0-.976-.847l2.676-.617a28.772,28.772,0,0,1,4.878,10.373,36.41,36.41,0,0,0,1.386,5.367,34.886,34.886,0,0,0,2.061,3.838A15.669,15.669,0,0,1,410.57,431.864Z" transform="translate(-261.303 -294.758)"/><path class="c" d="M449.452,367.313a14.82,14.82,0,0,1,10.571-2.756,22.342,22.342,0,0,1,6.22,2.067c3.845,1.75,7.634,3.766,10.406,6.642a26.137,26.137,0,0,1,4.106,5.926,13.088,13.088,0,0,1,1.205,2.9c.98,3.893-1.426,7.762-3.745,11.214l-4.46,6.635a57.463,57.463,0,0,1-6.782,8.8c-1.229,1.233-2.579,2.374-3.925,3.514l-5.91,5a.9.9,0,0,1-.4.231.974.974,0,0,1-.7-.238l-1.953-1.333a32.48,32.48,0,0,0,4.99-3.628,59.619,59.619,0,0,0,6.746-7.473l6.5-8.082c1.9-2.367,3.885-4.971,3.672-7.838a10.794,10.794,0,0,0-1.334-3.938q-1.675-3.373-3.64-6.639a33.634,33.634,0,0,0-5.195-6.918,17.279,17.279,0,0,0-7.875-4.537,7.6,7.6,0,0,0-2.853-.234c-2.113.3-3.616,1.857-4.954,3.3l-4.074,4.479c-.928,1.016-1.78,2.195-1.836.265C444.141,371.92,447.387,369.084,449.452,367.313Z" transform="translate(-289.506 -269.023)"/><path class="g" d="M455.86,404.48c.8,2.653,1.989,5.664,4.966,6.67a7.73,7.73,0,0,0,6.4-1.034,16.207,16.207,0,0,0,4.307-4.479,43.576,43.576,0,0,1,3.323-4.32c2.383-2.563,5.625-4.6,7.232-7.579.474-.889.8-1.84,1.342-2.694a17.321,17.321,0,0,1,1.945-2.229,23.584,23.584,0,0,0,4.383-6.525,4.6,4.6,0,0,0,.542-2.577c-.285-1.678-2.137-2.78-3.861-3.6a9.224,9.224,0,0,0-3.339-1.061,5.773,5.773,0,0,0-4.532,1.871,6.808,6.808,0,0,0-1.655,4.193c-.121,1.836.3,3.745-.4,5.481A8.415,8.415,0,0,1,475,388.839a29.465,29.465,0,0,1-8.241,6.522,10.8,10.8,0,0,0-.976-3.8c-.305-.668-6.292,0-7.071.11-1.543.193-4.532.344-5.5,1.605s.233,3.38.627,4.651Z" transform="translate(-294.653 -275.976)"/><path class="h" d="M451.927,373.36a20.05,20.05,0,0,0-2.475,2.067,10.881,10.881,0,0,0-2.881,6.628,24.539,24.539,0,0,0,.635,7.145q.651,3.176,1.539,6.308c.165-1.574,1.651-2.877,3.375-3.445a12.505,12.505,0,0,1,5.452-.276,30.1,30.1,0,0,1,6.854,1.7l.848-10.187a15.242,15.242,0,0,0-.028-4.134,9.236,9.236,0,0,0-4.958-6.184C457.066,371.3,454.82,371.193,451.927,373.36Z" transform="translate(-290.864 -273.806)"/><path class="j" d="M687.16,342.123a21.6,21.6,0,0,0-2.772-7.941,26.966,26.966,0,0,1-2.527-4.589c-.454-1.319-.542-2.708-.9-4.048a38.558,38.558,0,0,0-1.515-3.931c-3.636-9.3-.9-19.479-2.077-29.229-.438-3.6-1.724-7.541-5.36-9.416-2.162-1.113-4.757-1.285-7.3-1.378l-1.161-.045-1.864-.079a35.937,35.937,0,0,0-8.036.286c-3.214.6-7.023,2.543-8.036,5.357-.554-.245-1.113-.462-1.627-.665a32.823,32.823,0,0,0-6.465-1.723A26.708,26.708,0,0,0,643,282.9c4.018-2.005,4.95-7.862,5.77-11.779a21.845,21.845,0,0,0-1.29-11.772,18.694,18.694,0,0,0-1.828-3.9,15.778,15.778,0,0,0-10.065-6.611,18.1,18.1,0,0,0-12.5,1.822A46.011,46.011,0,0,0,613,258.792c-.4.407-2.081,1.847-1.523,2.453.313.345,1.346.069,2.431-.345a11.127,11.127,0,0,0-1.262,5.133c0,4.518,2.789,8.7,7.324,11l.4,3.17v.024c.044,1.058.064,2.115.08,3.17,0,.741,0,1.5-.024,2.257a18.212,18.212,0,0,1-5.994,3.824,11.027,11.027,0,0,0,5.44-.758,6.378,6.378,0,0,1-1.406,2.322c.482-.145.964-.276,1.446-.413a8.694,8.694,0,0,0-.671,1.082,7.512,7.512,0,0,0-.647,1.84,25.069,25.069,0,0,0-2.648,4.058h0c-.338.644-.639,1.3-.912,1.964v.045q-.4.992-.711,2.012h0q-.145.489-.265.982v.072c-.161.665-.293,1.333-.4,2.009v.138c-.044.313-.084.63-.113.947v.048c-.032.344-.056.672-.068,1.009v1.189a17.689,17.689,0,0,0,.12,1.95.708.708,0,0,0,.028.241c.032.265.068.531.112.8a.406.406,0,0,0,.028.183c.052.32.112.637.181.954a1.009,1.009,0,0,0,.052.21c.056.255.117.506.185.761l.072.262c.088.317.181.63.285.947.06.179.121.344.185.534a11.706,11.706,0,0,1,.4,1.988l-2.2.062q-7.055.172-14.1.548c-.586-1.94-2.587-3.059-5.107-3.325a11.729,11.729,0,0,0-1.205-.062h0A6.184,6.184,0,0,0,593.67,313a4.465,4.465,0,0,0,.916-1.723,5.334,5.334,0,0,0-1.663,1.251c-.149.172-.281.344-.4.5V312a.15.15,0,0,0-.055-.118.206.206,0,0,0-.138-.047h-.4a.207.207,0,0,0-.138.047.151.151,0,0,0-.055.118v2.1h-.217c-.265.021-.523.048-.776.09-2.736.438-4.741,1.943-4.741,4.479a5.229,5.229,0,0,0,2.266,4.2,10.662,10.662,0,0,0,.623,2.322,3.1,3.1,0,0,0,1.45,1.933,3.8,3.8,0,0,0,1.583.248c4.468,0,8.695-1.767,13.142-2.067,2.748-.19,5.508.176,8.265.1.4,0,.8-.034,1.205-.062-3.769,16-8.329,32.209-5.946,48.373a4.31,4.31,0,0,0,1.338,2.97c1.242.972,3.154.813,4.821.689a46.788,46.788,0,0,1,13.64.934,4.811,4.811,0,0,0,1.92.059,4.024,4.024,0,0,0,.4-.1l.113-.038c.084-.028.165-.055.241-.086l.117-.052.2-.1c.032-.021.068-.038.1-.059a1.529,1.529,0,0,0,.2-.138l.056-.041a2.67,2.67,0,0,0,.213-.2l.048-.062a1.7,1.7,0,0,0,.129-.162c.02-.028.04-.055.056-.083s.064-.1.092-.155a.585.585,0,0,0,.044-.093c.012-.031.052-.114.076-.172s0-.055.032-.086a.876.876,0,0,0,.076-.258v-.055a1.438,1.438,0,0,1,.044-.221.339.339,0,0,0,0-.114v-.875h0a7.572,7.572,0,0,0-.076-.913,7.3,7.3,0,0,0,.876.162h0a5.7,5.7,0,0,0,.836.052h.04a1.991,1.991,0,0,0,.4-.028h0q.174-.023.345-.062h.052a2.056,2.056,0,0,0,.305-.1l.048-.024a1.669,1.669,0,0,0,.237-.138l.036-.024a1.278,1.278,0,0,0,.2-.2l.036-.052a1.1,1.1,0,0,0,.141-.265c.229-.665-.293-1.416.542-2.026a24.045,24.045,0,0,1,1.74,6.7,3.855,3.855,0,0,0,.57,2.412,11.069,11.069,0,0,0,1.205,1.054c1.229,1.14,1.258,2.859,1.173,4.4-.036.624-.076,1.247-.129,1.871a81.195,81.195,0,0,1-5.866,24.4,12.28,12.28,0,0,1-1.229,2.412,12.557,12.557,0,0,1-3.017,2.846,38.821,38.821,0,0,1-5.364,3.269,16.85,16.85,0,0,0-2.728,1.554,2.484,2.484,0,0,1-.093-.238c-.044-.159-.1-.345-.285-.4a.625.625,0,0,0-.4.055c-1.884.71-3.769,1.419-5.581,2.25a6.485,6.485,0,0,0-2.354,1.561,1.876,1.876,0,0,0-.153,2.412,3.865,3.865,0,0,0,2.342.937c1.117.169,2.238.289,3.359.379a4.909,4.909,0,0,0-1.483,1.13,1.876,1.876,0,0,0-.153,2.412,3.865,3.865,0,0,0,2.342.937c7.123,1.078,14.428.344,21.66.162a27.516,27.516,0,0,0,6.979-.734,3.748,3.748,0,0,0,1.205-.541c1.012-.765.912-2.108.735-3.249l-.735-4.658a1.638,1.638,0,0,0-.317.052,60.539,60.539,0,0,1,3.3-12.885c2.451-6.529,6.1-12.961,6.051-19.792v-.5a62.607,62.607,0,0,0-.8-6.384,79.8,79.8,0,0,1-.374-10.735,19.861,19.861,0,0,1,.341-4.193.6.6,0,0,1,.036-.141l6.673-.152a5.394,5.394,0,0,0,2.154-.344,1.165,1.165,0,0,0,.779-1.478c2.845,1.106,6.649-.4,7.489-2.963a4.579,4.579,0,0,0,.141-.548.138.138,0,0,1,0-.041,4.541,4.541,0,0,0,.056-.513v-.086h0a8.36,8.36,0,0,0-.631-3.48,55.836,55.836,0,0,0-5.577-9.395c-1.053-1.581-2.073-3.183-3.066-4.792l.872.961a3.612,3.612,0,0,0,1.177.968c1.627.72,3.331-.73,4.986-1.4,2.2-.889,4.769-.365,7.2-.217s5.352-.389,6.22-2.319A4.392,4.392,0,0,0,687.16,342.123Zm-41.837-51.777c0,.737.056,1.485.124,2.236a21.519,21.519,0,0,0-2.812-3.2Z" transform="translate(-374.313 -192.997)"/><path class="k" d="M601.58,433.894a5.325,5.325,0,0,1,1.643-1.244,4.435,4.435,0,0,1-.9,1.723c-.7.816-1.434,1.378-1.639,1.244S600.873,434.71,601.58,433.894Z" transform="translate(-383.063 -313.741)"/><path class="d" d="M602.17,434.677a3.914,3.914,0,0,1,1.205-.927,3.316,3.316,0,0,1-.671,1.275c-.522.606-1.069,1.034-1.205.927S601.648,435.283,602.17,434.677Z" transform="translate(-383.565 -314.462)"/><path class="l" d="M541.319,346.77h.4a.181.181,0,0,1,.193.165v3.9h-.763v-3.9a.176.176,0,0,1,.169-.165Z" transform="translate(-323.778 -227.303)"/><path class="m" d="M598.857,445.342c0,3.044-2.878,5.512-6.429,5.512S586,448.387,586,445.342c0-2.525,1.981-4.02,4.685-4.458a10.978,10.978,0,0,1,1.744-.134,11.493,11.493,0,0,1,1.205.062C596.607,441.129,598.857,442.652,598.857,445.342Z" transform="translate(-374.313 -319.05)"/><path class="d" d="M600.609,440.836a2.31,2.31,0,0,1-1.511.345,3.04,3.04,0,0,1-1.438-.258,10.978,10.978,0,0,1,1.744-.134A11.493,11.493,0,0,1,600.609,440.836Z" transform="translate(-381.289 -319.075)"/><path class="d" d="M593.5,450.783c-3.55,0-6.428-2.468-6.428-5.512,0-2.481,1.908-3.965,4.536-4.43q-.465.03-.924.1c-2.7.438-4.685,1.933-4.685,4.458,0,3.044,2.878,5.512,6.428,5.512a7.3,7.3,0,0,0,1.443-.141C593.746,450.779,593.634,450.783,593.5,450.783Z" transform="translate(-374.313 -319.109)"/><path class="n" d="M674.116,639.1a5.207,5.207,0,0,0,3.451.6l5.492-.344c4.363-.276,8.875-.586,12.724-2.367a3.024,3.024,0,0,0,1.057-.689,2.605,2.605,0,0,0,.462-1.485A60.267,60.267,0,0,1,700.83,619.8c2.411-6.494,6.027-12.9,5.979-19.692v-.493c-.068-2.129-.506-4.234-.776-6.353a79.689,79.689,0,0,1-.37-10.68,19.933,19.933,0,0,1,.338-4.172c.253-1.12,1.205-2.243.623-3.228-1.129-1.912-5.223-2.615-7.425-2.684a34.471,34.471,0,0,0-8.747,1.237,6.105,6.105,0,0,0-2.443.947,3.657,3.657,0,0,0-1.169,2.859c-.153,4.6,2.937,8.878,3.182,13.47a3.914,3.914,0,0,0,.563,2.412,10.944,10.944,0,0,0,1.205,1.051c1.205,1.133,1.241,2.842,1.157,4.379-.036.62-.076,1.24-.124,1.86a81.272,81.272,0,0,1-5.8,24.271,12.323,12.323,0,0,1-1.205,2.412,12.547,12.547,0,0,1-2.981,2.832,38.578,38.578,0,0,1-5.3,3.252,10.772,10.772,0,0,0-3.439,2.246A2.344,2.344,0,0,0,674.116,639.1Z" transform="translate(-426.591 -405.401)"/><path class="d" d="M674.116,639.1a5.207,5.207,0,0,0,3.451.6l5.492-.344c4.363-.276,8.875-.586,12.724-2.367a3.024,3.024,0,0,0,1.057-.689,2.605,2.605,0,0,0,.462-1.485A60.267,60.267,0,0,1,700.83,619.8c2.411-6.494,6.027-12.9,5.979-19.692v-.493c-.068-2.129-.506-4.234-.776-6.353a79.689,79.689,0,0,1-.37-10.68,19.933,19.933,0,0,1,.338-4.172c.253-1.12,1.205-2.243.623-3.228-1.129-1.912-5.223-2.615-7.425-2.684a34.471,34.471,0,0,0-8.747,1.237,6.105,6.105,0,0,0-2.443.947,3.657,3.657,0,0,0-1.169,2.859c-.153,4.6,2.937,8.878,3.182,13.47a3.914,3.914,0,0,0,.563,2.412,10.944,10.944,0,0,0,1.205,1.051c1.205,1.133,1.241,2.842,1.157,4.379-.036.62-.076,1.24-.124,1.86a81.272,81.272,0,0,1-5.8,24.271,12.323,12.323,0,0,1-1.205,2.412,12.547,12.547,0,0,1-2.981,2.832,38.578,38.578,0,0,1-5.3,3.252,10.772,10.772,0,0,0-3.439,2.246A2.344,2.344,0,0,0,674.116,639.1Z" transform="translate(-426.591 -405.401)"/><path class="o" d="M674.116,691.649a5.207,5.207,0,0,0,3.451.6l5.492-.345c4.363-.276,8.875-.586,12.724-2.367a3.022,3.022,0,0,0,1.057-.689,2.605,2.605,0,0,0,.462-1.485,60.267,60.267,0,0,1,3.528-15.017c2.411-6.494,6.027-12.9,5.979-19.692a134.329,134.329,0,0,1-13.986.593,81.273,81.273,0,0,1-5.8,24.271,12.321,12.321,0,0,1-1.205,2.412,12.547,12.547,0,0,1-2.981,2.832,38.575,38.575,0,0,1-5.3,3.252,10.772,10.772,0,0,0-3.439,2.246A2.36,2.36,0,0,0,674.116,691.649Z" transform="translate(-426.591 -457.948)"/><path class="d" d="M674.116,691.649a5.207,5.207,0,0,0,3.451.6l5.492-.345c4.363-.276,8.875-.586,12.724-2.367a3.022,3.022,0,0,0,1.057-.689,2.605,2.605,0,0,0,.462-1.485,60.267,60.267,0,0,1,3.528-15.017c2.411-6.494,6.027-12.9,5.979-19.692a134.329,134.329,0,0,1-13.986.593,81.273,81.273,0,0,1-5.8,24.271,12.321,12.321,0,0,1-1.205,2.412,12.547,12.547,0,0,1-2.981,2.832,38.575,38.575,0,0,1-5.3,3.252,10.772,10.772,0,0,0-3.439,2.246A2.36,2.36,0,0,0,674.116,691.649Z" transform="translate(-426.591 -457.948)"/><path class="i" d="M674.814,751.922a22.347,22.347,0,0,0,3.785-1.55l6.055-2.928a5.643,5.643,0,0,1,1.8-.624l.723,4.634c.181,1.137.277,2.474-.723,3.235a3.755,3.755,0,0,1-1.205.537,26.842,26.842,0,0,1-6.894.727c-7.144.2-14.359.913-21.4-.162a3.86,3.86,0,0,1-2.31-.93,1.863,1.863,0,0,1,.149-2.387,6.422,6.422,0,0,1,2.326-1.554c1.792-.827,3.652-1.53,5.512-2.236a.616.616,0,0,1,.382-.055c.181.052.237.241.285.4a4.422,4.422,0,0,0,2.6,2.556C665.906,751.585,672.138,752.653,674.814,751.922Z" transform="translate(-415.155 -519.675)"/><path class="d" d="M674.814,751.922a22.347,22.347,0,0,0,3.785-1.55l6.055-2.928a5.643,5.643,0,0,1,1.8-.624l.723,4.634c.181,1.137.277,2.474-.723,3.235a3.755,3.755,0,0,1-1.205.537,26.842,26.842,0,0,1-6.894.727c-7.144.2-14.359.913-21.4-.162a3.86,3.86,0,0,1-2.31-.93,1.863,1.863,0,0,1,.149-2.387,6.422,6.422,0,0,1,2.326-1.554c1.792-.827,3.652-1.53,5.512-2.236a.616.616,0,0,1,.382-.055c.181.052.237.241.285.4a4.422,4.422,0,0,0,2.6,2.556C665.906,751.585,672.138,752.653,674.814,751.922Z" transform="translate(-415.155 -519.675)"/><path class="n" d="M684.116,653.1a5.207,5.207,0,0,0,3.451.6l5.492-.345c4.363-.276,8.875-.586,12.724-2.367a3.024,3.024,0,0,0,1.057-.689,2.605,2.605,0,0,0,.462-1.485A60.256,60.256,0,0,1,710.83,633.8c2.411-6.494,6.027-12.9,5.978-19.692v-.493c-.068-2.129-.506-4.234-.775-6.353a79.649,79.649,0,0,1-.37-10.68,19.938,19.938,0,0,1,.338-4.172c.253-1.12,1.205-2.243.623-3.228-1.129-1.912-5.223-2.615-7.425-2.684a34.473,34.473,0,0,0-8.747,1.237,6.105,6.105,0,0,0-2.443.947,3.658,3.658,0,0,0-1.169,2.859c-.153,4.6,2.937,8.878,3.182,13.47a3.914,3.914,0,0,0,.562,2.412,10.966,10.966,0,0,0,1.205,1.051c1.205,1.133,1.242,2.842,1.157,4.379-.036.62-.076,1.24-.125,1.86a81.274,81.274,0,0,1-5.8,24.271,12.325,12.325,0,0,1-1.205,2.412,12.547,12.547,0,0,1-2.981,2.832,38.588,38.588,0,0,1-5.3,3.252,10.768,10.768,0,0,0-3.439,2.246A2.344,2.344,0,0,0,684.116,653.1Z" transform="translate(-432.573 -414.578)"/><path class="o" d="M684.116,705.649a5.206,5.206,0,0,0,3.451.6l5.492-.345c4.363-.276,8.875-.586,12.724-2.367a3.023,3.023,0,0,0,1.057-.689,2.6,2.6,0,0,0,.462-1.485,60.257,60.257,0,0,1,3.528-15.017c2.411-6.494,6.027-12.9,5.978-19.692a134.33,134.33,0,0,1-13.986.592,81.273,81.273,0,0,1-5.8,24.271,12.317,12.317,0,0,1-1.205,2.412,12.548,12.548,0,0,1-2.981,2.832,38.607,38.607,0,0,1-5.3,3.252,10.768,10.768,0,0,0-3.439,2.246A2.36,2.36,0,0,0,684.116,705.649Z" transform="translate(-432.573 -467.125)"/><path class="i" d="M684.814,765.922a22.359,22.359,0,0,0,3.785-1.55l6.055-2.928a5.64,5.64,0,0,1,1.8-.624l.723,4.634c.181,1.137.277,2.474-.723,3.235a3.758,3.758,0,0,1-1.205.537,26.846,26.846,0,0,1-6.894.727c-7.144.2-14.36.913-21.4-.162a3.86,3.86,0,0,1-2.31-.93,1.863,1.863,0,0,1,.149-2.388,6.424,6.424,0,0,1,2.326-1.554c1.792-.827,3.652-1.53,5.512-2.236a.615.615,0,0,1,.382-.055c.181.052.237.241.285.4a4.422,4.422,0,0,0,2.6,2.556C675.906,765.585,682.138,766.653,684.814,765.922Z" transform="translate(-421.137 -528.852)"/><path class="n" d="M665.81,336.347c1.957-2.067,2.009-4.954,1.961-7.607,0-1.034-.036-2.1-.08-3.152v-.024a30.677,30.677,0,0,0-.711-5.753h0a18.574,18.574,0,0,0-.844-2.687c.265-.052.53-.1.8-.141a38.3,38.3,0,0,1,12.756,0,30.137,30.137,0,0,1,3.616.4,1.22,1.22,0,0,1,.727.438c.2.369-.217,1.437-.522,2.384h0a4.069,4.069,0,0,0-.281,1.323,7.9,7.9,0,0,0,.225,1.257c.189.761.438,1.516.554,2.288.2,1.316.024,2.656.125,3.983a4.728,4.728,0,0,0,1.724,3.586A92.955,92.955,0,0,0,665.81,336.347Z" transform="translate(-422.058 -237.571)"/><path class="d" d="M686.75,322.649c-.534.038-1.065.083-1.607.134a92.78,92.78,0,0,0-15.766,2.825v-.024l-.711-5.753h0V318.78c0-.589-.02-1.185-.036-1.778a38.3,38.3,0,0,1,12.756,0,30.144,30.144,0,0,1,3.616.4c0,.562,0,1.123.024,1.685a6.518,6.518,0,0,0,.181,1.137h0A4.2,4.2,0,0,0,686.75,322.649Z" transform="translate(-423.745 -237.585)"/><ellipse class="n" cx="14.866" cy="12.747" rx="14.866" ry="12.747" transform="translate(238.003 61.152)"/><path class="c" d="M646.38,388.822c-2.64-8.01-.229-16.612,6.075-22.938a16.612,16.612,0,0,1,4.653-3.7c2.19-1,4.781-1.034,7.26-1.054a18.621,18.621,0,0,1,6.461.748c2.72,1,4.6,3.159,6.179,5.306,1.688,2.288,3.214,4.765,3.471,7.466.137,1.6-.193,3.228.084,4.823.354,2.022,1.667,3.834,2.206,5.826.293,1.075.354,2.188.542,3.283A27.154,27.154,0,0,0,684.548,393a147.755,147.755,0,0,0,16.3,32.632,56.428,56.428,0,0,1,5.508,9.347,6.778,6.778,0,0,1,.554,4.637c-.832,2.549-4.588,4.048-7.4,2.949a1.161,1.161,0,0,1-.771,1.468,5.278,5.278,0,0,1-2.129.345l-24.814.565a10.361,10.361,0,0,0-1.933.224c-2.917.641-1.82,1.723-2.133,2.625-.382,1.1-2.226,1.013-3.511.689.2,1.609.241,3.576-2.182,4.045a4.753,4.753,0,0,1-1.9-.055,45.911,45.911,0,0,0-13.476-.93c-1.655.131-3.548.289-4.773-.689a4.312,4.312,0,0,1-1.322-2.952c-2.471-16.881,2.612-33.786,6.428-50.464a17.26,17.26,0,0,0-.442-8.093Z" transform="translate(-406.568 -266.86)"/><path class="p" d="M734.3,367.482a18.382,18.382,0,0,1,1.507,4.372c.157,1.213-.032,2.439.052,3.655a16.445,16.445,0,0,0,.968,3.972,56.8,56.8,0,0,0,2.857,7.383c.538,1.085,1.161,2.281.727,3.4s-1.78,1.812-2.166,2.925c-.4,1.175.4,2.412,1.426,3.269s2.306,1.468,3.254,2.381a16.314,16.314,0,0,1,2.334,3.445,32.2,32.2,0,0,0,3.54,4.427l4.857,5.405a3.6,3.6,0,0,0,1.165.965c1.607.717,3.291-.727,4.926-1.378,2.169-.885,4.709-.365,7.107-.217s5.287-.386,6.143-2.308a4.381,4.381,0,0,0,.173-2.412,21.558,21.558,0,0,0-2.74-7.9,26.883,26.883,0,0,1-2.495-4.568c-.45-1.313-.538-2.694-.9-4.027a38.954,38.954,0,0,0-1.495-3.91c-3.592-9.254-.892-19.379-2.053-29.08-.43-3.579-1.7-7.5-5.3-9.367-2.133-1.106-4.7-1.278-7.232-1.378l-1.145-.045-1.844-.079a35.124,35.124,0,0,0-7.943.286c-3.656.689-8.056,3.125-8.2,6.625a35.5,35.5,0,0,0,2.467,14.16Z" transform="translate(-461.542 -257.155)"/><path class="d" d="M772.09,346.54a34.233,34.233,0,0,1,.735,7.1,176.093,176.093,0,0,0,1.788,20.326l.566,4.479a4.26,4.26,0,0,0,.8,2.36,2.1,2.1,0,0,0,2.539.5,14.268,14.268,0,0,0,.281-4.871q-.3-5.2-.6-10.4c-.193-3.376-.4-6.756-.88-10.111a58.416,58.416,0,0,0-1.655-7.721,8.213,8.213,0,0,0-.575-1.54l-1.145-.045Z" transform="translate(-485.637 -257.297)"/><path class="p" d="M682.14,354.52a17.663,17.663,0,0,0-7.381.276,14.832,14.832,0,0,0-5.625,3.683,12.951,12.951,0,0,0-2.684,3.338c-1.37,2.7-.836,5.815,0,8.675a38.083,38.083,0,0,0,14.062,20.671,53.484,53.484,0,0,0,7.035,4.134,51.914,51.914,0,0,0,10.089,4.034,7.14,7.14,0,0,0,3.065.3c1.016-.186,1.977-.892,2.009-1.785A119.461,119.461,0,0,1,686.475,387.8a32.309,32.309,0,0,1-3.982-3.1c-1.84-1.774-3.138-3.917-4.922-5.733-1.607-1.63-3.616-3-4.821-4.868a11.71,11.71,0,0,1-1.5-4.058,13.288,13.288,0,0,1,.627-8.644,8.858,8.858,0,0,1,7.806-4.865,15.65,15.65,0,0,1,5.034,1.2l10.165,3.679c-.125-.048.583-1.561.55-1.771-.1-.658-.233-.668-.8-1.168a13.639,13.639,0,0,0-3.717-1.905A36.03,36.03,0,0,0,682.14,354.52Z" transform="translate(-421.939 -262.362)"/><path class="q" d="M651.583,266.268a18.361,18.361,0,0,0,7.79-3.445l-2.125,9.564a58.327,58.327,0,0,0,6.147-2.839,26.487,26.487,0,0,1-2.009,12.923,18.562,18.562,0,0,1-10,9.526c4.13.593,7.839-1.95,11.515-3.669,2.563-1.2,6.943.034,9.747-.689a34.283,34.283,0,0,0,6.967-2.195c3.986-1.995,4.89-7.82,5.7-11.713a21.944,21.944,0,0,0-1.27-11.714,19.017,19.017,0,0,0-1.8-3.879,15.5,15.5,0,0,0-9.929-6.574,17.81,17.81,0,0,0-12.365,1.813,46.215,46.215,0,0,0-9.968,8.086c-.4.4-2.061,1.836-1.511,2.439.671.73,4.608-1.35,5.275-1.633C653.548,262.891,652.35,266.106,651.583,266.268Z" transform="translate(-411.615 -194.781)"/><g class="r" transform="translate(233.359 105.301)"><path d="M663.268,470.762a4.755,4.755,0,0,1-1.9-.055,45.909,45.909,0,0,0-13.476-.93c-1.655.131-3.548.289-4.773-.689a4.311,4.311,0,0,1-1.322-2.953c-2.471-16.881,2.612-33.786,6.428-50.464a17.26,17.26,0,0,0-.442-8.093l-.181-.534a21.087,21.087,0,0,1,.253-13.894,21.376,21.376,0,0,0-1.467,16.661l.181.534a17.268,17.268,0,0,1,.442,8.093c-3.8,16.678-8.887,33.593-6.428,50.464a4.329,4.329,0,0,0,1.322,2.952c1.205.968,3.118.81,4.773.689a45.908,45.908,0,0,1,13.476.93,4.756,4.756,0,0,0,1.9.055c1.977-.382,2.31-1.764,2.262-3.132A3.458,3.458,0,0,1,663.268,470.762Z" transform="translate(-639.941 -393.15)"/><path d="M738.21,586.9a1.161,1.161,0,0,1-.771,1.468,5.279,5.279,0,0,1-2.129.345l-24.814.565a10.36,10.36,0,0,0-1.932.224c-2.917.641-1.82,1.723-2.134,2.625-.382,1.1-2.226,1.013-3.511.689a4.539,4.539,0,0,1-.338,2.922c1.129.145,2.342.017,2.644-.854s-.784-1.984,2.133-2.625a10.366,10.366,0,0,1,1.932-.224l24.8-.565a5.277,5.277,0,0,0,2.129-.345,1.161,1.161,0,0,0,.771-1.468c2.812,1.1,6.565-.4,7.4-2.949a4.3,4.3,0,0,0,.209-1.185A6.191,6.191,0,0,1,738.21,586.9Z" transform="translate(-677.413 -519.246)"/></g><path class="n" d="M638.439,380.56a110.168,110.168,0,0,1,5.653,11.944c1.318,3.276,2.479,6.718,2.041,10.163a9.523,9.523,0,0,1-6.67,8.01,20.424,20.424,0,0,1-5.119.5q-6.193.125-12.339.854-2.856.405-5.75.548c-2.724.076-5.448-.289-8.164-.1-4.4.307-8.57,2.067-12.981,2.067a3.779,3.779,0,0,1-1.567-.248,3.084,3.084,0,0,1-1.434-1.922c-.615-1.681-1.1-3.61-.056-5.13,1.282-1.871,4.195-2.246,6.722-2.412q8.534-.517,17.088-.723c4.866-.117,10.137-.276,13.91-2.915a1.811,1.811,0,0,0,.607-.6,1.657,1.657,0,0,0-.048-1.23,46.3,46.3,0,0,1-1.9-15.348,2.031,2.031,0,0,1,.4-1.316,2.64,2.64,0,0,1,1.274-.634,21.624,21.624,0,0,1,10.4-.248" transform="translate(-377.571 -279.596)"/><path class="c" d="M681.034,372.529a3.03,3.03,0,0,0-1.454.92c.161-1.437-.056-2.887-.024-4.334a5.942,5.942,0,0,1,1.41-4.079c1.354-1.433,3.656-1.946,5.81-1.995a13.546,13.546,0,0,1,8.65,2.532,7.291,7.291,0,0,1,2.712,4.479c.072.472.313,2.243-.261,2.546-.5.269-2.411-.658-3.025-.806A23.449,23.449,0,0,0,681.034,372.529Z" transform="translate(-430.278 -268.11)"/><circle class="e" cx="2.5" cy="2.5" r="2.5" transform="translate(187.302 18.104)"/><ellipse class="e" cx="3.5" cy="2.5" rx="3.5" ry="2.5" transform="translate(205.302 65.104)"/><ellipse class="e" cx="3.5" cy="3" rx="3.5" ry="3" transform="translate(151.302 20.104)"/><ellipse class="e" cx="7" cy="6.5" rx="7" ry="6.5" transform="translate(62.302 126.104)"/><ellipse class="e" cx="3" cy="2.5" rx="3" ry="2.5" transform="translate(357.302 32.104)"/><ellipse class="e" cx="9.5" cy="8" rx="9.5" ry="8" transform="translate(353.302 59.104)"/><ellipse class="e" cx="2.5" cy="2" rx="2.5" ry="2" transform="translate(376.302 43.104)"/><ellipse class="e" cx="3" cy="2.5" rx="3" ry="2.5" transform="translate(350.302 87.104)"/><ellipse class="e" cx="3.5" cy="2.5" rx="3.5" ry="2.5" transform="translate(180.302 38.104)"/><circle class="e" cx="3" cy="3" r="3" transform="translate(76.302 159.104)"/><ellipse class="e" cx="2.5" cy="2" rx="2.5" ry="2" transform="translate(72.302 104.104)"/><ellipse class="e" cx="3" cy="2" rx="3" ry="2" transform="translate(226.302 16.104)"/><ellipse class="e" cx="3" cy="2.5" rx="3" ry="2.5" transform="translate(235.302 38.104)"/></g></g></svg>