<svg xmlns="http://www.w3.org/2000/svg" xmlns:xlink="http://www.w3.org/1999/xlink" width="373" height="219.032" viewBox="0 0 373 219.032"><defs><style>.a{fill:#f2f2f2;}.b{fill:#e6e6e6;}.c,.h,.i{fill:#ec741d;}.c,.d,.g,.n{opacity:0.1;}.d{fill:#6c63ff;}.e{fill:#464353;}.f{fill:#514e7f;}.i{opacity:0.5;}.j{fill:url(#a);}.k{fill:#3f3d56;}.l{fill:#a1616a;}.m{opacity:0.05;}</style><linearGradient id="a" x1="0.5" y1="1" x2="0.5" gradientUnits="objectBoundingBox"><stop offset="0" stop-color="gray" stop-opacity="0.251"/><stop offset="0.54" stop-color="gray" stop-opacity="0.122"/><stop offset="1" stop-color="gray" stop-opacity="0.102"/></linearGradient></defs><g transform="translate(-317 -2824)"><g transform="translate(274 2612)"><path class="a" d="M63.246,324.464h-.591v-.591H62.54v.591h-.591v.115h.591v.591h.115v-.591h.591Z" transform="translate(54.957 72.243)"/><path class="b" d="M132.052,335.245l-.567.483c.966,1.135,1.906,2.321,2.795,3.521l.6-.444C133.982,337.592,133.032,336.393,132.052,335.245Z" transform="translate(-7.521 47.945)"/><path class="b" d="M112.621,315.185l-.5.554c1.115,1,2.208,2.043,3.249,3.109l.535-.522C114.855,317.247,113.749,316.19,112.621,315.185Z" transform="translate(5.563 61.501)"/><path class="b" d="M90.663,297.965l-.418.616c1.239.833,2.464,1.722,3.641,2.639l.46-.587C93.153,299.706,91.915,298.808,90.663,297.965Z" transform="translate(20.349 73.138)"/><path class="b" d="M71.4,286.005v.843c.775.405,1.543.83,2.3,1.264l.373-.645Q72.76,286.709,71.4,286.005Z" transform="translate(33.08 81.22)"/><path class="a" d="M69.9,390.814h-.55v-.55h-.107v.55h-.55v.107h.55v.55h.107v-.55h.55Z" transform="translate(50.398 27.378)"/><path class="c" d="M387.786,315.667c-.35.256-.71.5-1.073.746a36,36,0,0,1-4.186,2.415c-7.606,3.793-16.976,5.645-26.106,6.9-20.475,2.827-41.38,3.375-62.2,3.913-56.243,1.462-112.634,2.918-168.734-.447-22.164-1.329-44.824-3.566-64.912-10.375q-4.315-1.462-8.469-3.223a71.014,71.014,0,0,1-15.443-8.728,32.085,32.085,0,0,1-9.642-11.205c-4.247-8.825-2-18.737,2.847-27.384a84.642,84.642,0,0,1,6.809-10.051c3.735-4.87,7.856-9.587,11.623-14.451,13.4-17.32,22.138-39.2,9.772-56.936-3.566-5.1-8.692-9.571-11.588-14.891-3.7-6.809-3.411-14.366-2.234-21.723.149-.927.324-1.848.483-2.769,2.02-10.884,5.781-22.614,17.424-29.41,12.093-7.062,29.261-6.7,44.276-4.179,23.344,3.93,44.879,12.136,66.624,19.547s44.522,14.181,68.437,14.914c21.113.648,45.744-4.173,59.757-16.684,13.617-12.152,39.2-13.076,57.647-5.735,12.645,5.038,22.1,14.113,26.08,24.317a30.4,30.4,0,0,1,1.735,6.335,27.73,27.73,0,0,1,.324,5.975,26.6,26.6,0,0,1-.324,2.918c-3.08,20.144-25.26,36.031-38.741,54.025-6.588,8.79-11.241,19.346-6.711,28.823,6.909,14.441,30.937,19.573,45.453,30.324a33.146,33.146,0,0,1,7.133,6.919C400.865,295.122,398.268,308.039,387.786,315.667Z" transform="translate(18.223 99.782)"/><ellipse class="d" cx="87.423" cy="2.97" rx="87.423" ry="2.97" transform="translate(129.909 420.001)"/><path class="e" d="M641.263,401.059h-2.876L617.352,292.467l-2.7,108.591H611.6l-3.417-108.41-20.5,108.41H584.45l13.932-111.613.454-3.628,27.329-3.057.849,6.685Z" transform="translate(-351.958 20.917)"/><rect class="e" width="17.394" height="10.787" transform="translate(213.859 281.909)"/><path class="e" d="M863.05,304.437l10.518-4.247h2.305a1.268,1.268,0,0,1,1.268,1.268v29.621a1.268,1.268,0,0,1-1.268,1.268h-2.305l-10.518-4.38Z" transform="translate(-548.264 -27.246)"/><rect class="e" width="21.506" height="20.831" transform="translate(293.28 278.541)"/><rect class="f" width="13.844" height="2.516" transform="translate(255.95 239.414)"/><rect class="f" width="38.968" height="28.45" transform="translate(240.154 242.672)"/><rect class="g" width="38.968" height="3.372" transform="translate(240.154 267.754)"/><rect class="g" width="0.872" height="20.831" transform="translate(292.947 278.541)"/><rect class="g" width="5.933" height="10.787" transform="translate(225.32 281.909)"/><path class="g" d="M656.052,289.445H627.42l.454-3.628L655.2,282.76Z" transform="translate(-380.996 20.917)"/><rect class="f" width="67.419" height="41.529" rx="10.7" transform="translate(225.859 268.292)"/><path class="f" d="M834.133,201.07h.2V224.6h-.2a1.683,1.683,0,0,1-1.683-1.683V202.753A1.683,1.683,0,0,1,834.133,201.07Z" transform="translate(-519.551 76.122)"/><path class="f" d="M870.71,188h2.182a1.391,1.391,0,0,1,1.391,1.391v29.381a1.391,1.391,0,0,1-1.391,1.391H870.71Z" transform="translate(-545.406 84.954)"/><rect class="g" width="3.103" height="10.787" transform="translate(213.859 281.909)"/><rect class="f" width="6.066" height="18.338" rx="3.033" transform="translate(210.354 278.541)"/><circle class="e" cx="19.418" cy="19.418" r="19.418" transform="translate(220.736 223.254)"/><circle class="h" cx="14.564" cy="14.564" r="14.564" transform="translate(225.59 228.108)"/><circle class="e" cx="14.159" cy="14.159" r="14.159" transform="translate(261.996 228.919)"/><circle class="h" cx="10.618" cy="10.618" r="10.618" transform="translate(265.537 232.459)"/><circle class="h" cx="1.864" cy="1.864" r="1.864" transform="translate(273.192 272.607)"/><circle class="i" cx="1.864" cy="1.864" r="1.864" transform="translate(279.122 272.607)"/><path class="j" d="M430.912,188.1l-.133-.263a11.762,11.762,0,0,1,2.354,1.083c-.324-2.817-11.131-10.728-13.076-10.728s-4.108-3.359-4.108-3.359-5.619-.866-6.484-1.783-6.7-.383-8.106-.058-3.566-.866-3.566-.866-1.19-1.945-2.7-1.945-3.129-2.166-3.129-2.166a6.715,6.715,0,0,0-2.707-1.517,7.028,7.028,0,0,1-3.677-2.707c-.759-1.086-4.539-1.621-6.7-1.3s-8-.441-8-.441a5.726,5.726,0,0,0,2.95-3.683c-2.127-.11-7.716-4.8-7.716-4.8s.23,1.517.5,3.635l-.36-.464-.049.039a35.06,35.06,0,0,1-.049-4.539c0-.117.019-.233.026-.353a10.1,10.1,0,0,0,3.164-9.95c-.058-.246-.126-.486-.2-.723a4.5,4.5,0,0,0,1.3.324h.23a1.9,1.9,0,0,0,1.423-.629h0a1.519,1.519,0,0,0,.159-.246.417.417,0,0,0,.029-.052,1.767,1.767,0,0,0,.1-.246q.014-.045.023-.091a2.007,2.007,0,0,0,.039-.2v-.3a3.849,3.849,0,0,0-.324-1.446,6.417,6.417,0,0,1-.794-2.568,1.589,1.589,0,0,1,.026-.217,11.65,11.65,0,0,1,.687-2.052v-.029c.032-.1.058-.2.081-.3a.744.744,0,0,0,.026-.091,2.744,2.744,0,0,0,.049-.36v-.026a3.433,3.433,0,0,0-2.247-3.087,21.992,21.992,0,0,1-3.391-1.3c-1.157-.762-1.793-2.082-2.649-3.174a6.048,6.048,0,0,0-5.188-2.548c-1.229.139-2.344.785-3.566,1.034-1.858.386-3.823-.175-5.671.256a1.945,1.945,0,0,0-1.154.648,1.32,1.32,0,0,0-.233.587h0a2.239,2.239,0,0,0,0,.59v.016a4.155,4.155,0,0,0,.1.554l.029.113a.478.478,0,0,0,.026.113c.01.039.042.152.062.227.036.126.065.253.1.383v.045c.029.133.058.266.081.4h0a6.834,6.834,0,0,1,.1.849h0a3.913,3.913,0,0,1-.5,2.308c-.811,1.3-2.532,1.871-3.281,3.223a2.8,2.8,0,0,0-.324,1.054h0a2.821,2.821,0,0,0-.016.37v.049a1.233,1.233,0,0,0,.029.324.649.649,0,0,0,0,.078,2.8,2.8,0,0,0,.065.285.291.291,0,0,0,.026.091,2.538,2.538,0,0,0,.13.324h0c.347.723,1,1.32,1.138,2.1h0a.121.121,0,0,0,.016.071,5.275,5.275,0,0,1-.3,1.748,2.085,2.085,0,0,0-.039.214h0v.431a.8.8,0,0,0,0,.091v.211a.514.514,0,0,0,.032.12l.023.081a1.217,1.217,0,0,0,.052.113l.036.071a1.19,1.19,0,0,0,.078.113.541.541,0,0,0,.039.052.882.882,0,0,0,.149.139c.447.324,1.145.24,1.511.648a.769.769,0,0,1,.1.162l.019.039a.9.9,0,0,1,.062.178h0a1.777,1.777,0,0,1,0,.739c-.13.648-.405,1.239-.551,1.874a4,4,0,0,0-.065.4h0a.653.653,0,0,1-.016.178v.253a1.055,1.055,0,0,0,.019.246c.019.081,0,.078.019.113l.019.094a.464.464,0,0,0,.036.126l.029.081c.016.045.039.091.058.136a.565.565,0,0,0,.032.062,1.134,1.134,0,0,0,.117.188,2.038,2.038,0,0,0,1.718.713,5.414,5.414,0,0,0,1.148-.13c.084.2.172.4.266.587a10.073,10.073,0,0,0,1.825,2.568,2.445,2.445,0,0,1-.032.3c-.075.739-.165,1.534-.269,2.334-.84-.386-1.488-.535-1.744-.256-1.086,1.193,0,5.311,0,5.311s-5.3,0-6.6,1.19-3.673,0-3.673,0-4.863.545-4.539,1.521-2.594,0-2.594,0-2.056.217-1.945,1.621-3.135,2.056-2.7,3.031-1.945,1.621-1.945,1.621-2.377-.107-1.511,1.3h0s-1.3,3.035-2.377,3.242-2.487,2.707-2.487,2.707-4.163.759-3.975,2.059-6.4,10.6-6.4,10.6-2.163,4.458-.648,7.71a64.02,64.02,0,0,1,2.918,6.608c.324,1.19,4.254,6.429,4.221,7.405a23.178,23.178,0,0,0,2.3,4.027l-.389.4-.853.879s-2.7,6.718.538,7.042c2.74.272,4.708.47,5.706.2a1.368,1.368,0,0,0,.454-.2l.039-.029c1.18,1.741,2.017,2.957,2.017,2.957s.117-.172.324-.467l.324.464s.259-.37.7-.973c-.143,2.947-.162,5.852-.162,5.852s1.407-.217.759,6.283,3.891,11.808,3.891,11.808v9.646h0a6.464,6.464,0,0,0,.045.648,19.669,19.669,0,0,0,1.683,6.809c1.514,2.814,0,10.184,0,10.184s-.1,6.011.263,13.507c0,.2.023.415.032.622-6.556,5.479-13.588,12.742-13.588,12.742a3.568,3.568,0,0,1,.973.438l-.392.5-1.786,2.2h0l-1.381,1.705h0l2.188,6.741,2.39-.934s1.3,2.247,1.025,3.771a1.621,1.621,0,0,1-.324.755.954.954,0,0,0-.169.373c-.626,2.441,1.984,12.969,6.125,13.426a1.45,1.45,0,0,0,1.855-.8,5.585,5.585,0,0,0-.272-3.265s-2.188-2.639-.772-5.483c.83-1.663,2.2-3.891,3.194-5.463l.409-.648c.892,1.125,1.44,1.848,1.44,1.848l3.184-3.424c.068.146.136.289.208.425a10.18,10.18,0,0,0,.824,1.368l2.159,8.563.872-.195c-.019.208-.032.428-.045.648a10.722,10.722,0,0,0,.71,4.954,2.952,2.952,0,0,0,2.9,1.812c5.025-.123,6.484-2.843,6.484-2.843v-6.809l1.728-.386s-.126-14.96-.571-23.3c0-.185-.019-.363-.029-.538v-.075l11.1-11.935.853-.34a11.53,11.53,0,0,0,7.243-10.077,34.706,34.706,0,0,1,.862-7.366c.862-3.359.11-20.805-1.511-25.137a44.178,44.178,0,0,1-2.163-9.214s1.621-2.27,0-4.16a8.3,8.3,0,0,1-1.135-1.855l2.111-.347,1.216-.2.648-.11c-.324,2.866-.379,5.068.389,5.593,2.38,1.621,10.375-3.793,10.375-3.793-2.918,0-4.539-21.778-3.946-22.319s1.478-11.455.7-13.4,2.72-10.631,2.72-10.631l.538-.8h0s12.755,5.567,14.159,6.634,5.836-2.594,6.591-1.177,5.512,3.528,5.512,3.528,7.026-.71,7.781,1.025,5.3,5.8,5.3,5.8a24.742,24.742,0,0,1,.172-2.85c.094.224.185.451.282.681,2.153,5.094,5.735,11.542,9.055,8.073C435.613,199.062,432.75,191.774,430.912,188.1Zm-96.128,23.02v.062l-.026-.026Zm-2.516-24.991-1.375,14.5-2.7,2.8-.324.344-2.792-3.038s-1.407-.648,0-1.842S322.7,195,322.7,195s-.11-1.945,1.3-2.49,3.242-4.118,3.242-4.118l5.081-2.594h0Zm18.079,74.195a1.717,1.717,0,0,1,.324-.237c.606-.344,1,.032,1.2.694a5.59,5.59,0,0,1-.23,3.333c-.755,1.735,1.083,8.67,1.083,8.67s-2.38,1.08-2.811,3.142a2.142,2.142,0,0,1-.324.707c-.029-.182-.055-.357-.081-.525-.211-1.3-.324-2.133-.324-2.133a13.806,13.806,0,0,1-.217-5.09c.344-2.085,1.038-6.319,1.3-7.924.065-.389.1-.622.1-.648Z" transform="translate(-173.39 92.804)"/><path class="e" d="M483.629,220.947l.7-.467,1.975,4.166-.759.892h-2.3s.081-2.27.136-2.351S483.629,220.947,483.629,220.947Z" transform="translate(-291.603 26.621)"/><path class="k" d="M421.536,731.27v8.916s-1.459,2.714-6.484,2.837a2.95,2.95,0,0,1-2.9-1.806,10.81,10.81,0,0,1-.71-4.944,19.453,19.453,0,0,1,.243-2.289Z" transform="translate(-243.066 -318.56)"/><path class="g" d="M421.58,731.27v2.759l-10.09,2.244a19.453,19.453,0,0,1,.243-2.289Z" transform="translate(-243.109 -318.56)"/><path class="f" d="M402.217,597.4l-12.645,2.811-2.159-8.54a10.353,10.353,0,0,1-.824-1.365c-.139-.272-.276-.561-.405-.862-2.354-5.385-3.4-15.1-3.848-23.363-.023-.418-.045-.833-.065-1.242-.363-7.477-.263-13.475-.263-13.475s1.514-7.35,0-10.158a19.685,19.685,0,0,1-1.683-6.809c-.032-.412-.045-.648-.045-.648l.233-.613.953-2.522h10.485l6.1,5.158.927.785-.1.648c-.263,1.6-.956,5.836-1.3,7.9a13.736,13.736,0,0,0,.217,5.077s.126.823.324,2.13c.049.324.1.668.165,1.041.775,4.792,2.227,13.543,2.847,15.634a23.738,23.738,0,0,1,.438,3.962c.026.389.049.794.071,1.219C402.09,582.476,402.217,597.4,402.217,597.4Z" transform="translate(-222.018 -182.958)"/><path class="g" d="M423.06,758.49v.091s-1.459,2.714-6.484,2.837a2.95,2.95,0,0,1-2.9-1.806A12.559,12.559,0,0,0,423.06,758.49Z" transform="translate(-244.589 -336.955)"/><path class="l" d="M666.3,336.953c-3.333,3.459-6.9-2.973-9.056-8.054-1.209-2.86-1.968-5.295-1.968-5.295l8.871-3.754s.545.866,1.229,2.237C667.218,325.751,670.081,333.02,666.3,336.953Z" transform="translate(-407.857 -40.531)"/><path class="l" d="M453.774,199.266a40.473,40.473,0,0,0,.717,9.577s-18.046,1.945-16.425-.862c.95-1.647,1.566-5.995,1.91-9.318.25-2.354.36-4.192.36-4.192s17.291-6.916,14.7-1.08A17.155,17.155,0,0,0,453.774,199.266Z" transform="translate(-260.999 46.509)"/><path class="e" d="M461.6,240.845l-2.425,28.963,11.13-1.835-1.945-23.885L469,237.71Z" transform="translate(-267.296 51.361)"/><path class="g" d="M470.294,268.113l-4.834.8-6.3,1.038.444-5.285,1.984-23.678,2.526-1.07,1.79-.755L469,237.85l-.648,6.377Z" transform="translate(-267.289 51.267)"/><path class="k" d="M348.645,695.44c-1.417,2.837.772,5.47.772,5.47a5.512,5.512,0,0,1,.272,3.242c-.451,1.261-1.855.8-1.855.8-4.416-.486-7.091-12.4-5.956-13.763s-.691-4.5-.691-4.5l-2.39.931-2.189-6.724,1.381-1.7,1.786-2.2,1.209-1.491,12.077,12.6s-.516.775-1.226,1.887C350.847,691.549,349.475,693.786,348.645,695.44Z" transform="translate(-192.507 -280.872)"/><path class="g" d="M405.931,621.525l-15.057,16.149c-2.639-5.155-3.774-15.5-4.254-24.229a41.308,41.308,0,0,1,7.561-5.314s6.932-5.016,8.394-7.421c.775,4.792,2.227,13.543,2.847,15.634A33.412,33.412,0,0,1,405.931,621.525Z" transform="translate(-226.303 -230.331)"/><path class="g" d="M373.754,423.538,356.22,420.9l.953-2.522h10.485Z" transform="translate(-197.725 -70.732)"/><path class="g" d="M405.737,618.143,390.346,634.65c-2.367-5.385-3.414-15.1-3.861-23.363-.023-.418-.045-.833-.065-1.242a42,42,0,0,1,7.626-5.369s6.468-4.678,8.229-7.165c.049.324.1.668.165,1.041.775,4.792,2.227,13.543,2.847,15.634A25.877,25.877,0,0,1,405.737,618.143Z" transform="translate(-226.167 -228.168)"/><path class="g" d="M359.667,688.122s-.516.775-1.226,1.887c-2.578-3.258-8.689-10.761-12.061-13l1.209-1.491Z" transform="translate(-199.109 -280.886)"/><path class="f" d="M397.585,457.383a34.564,34.564,0,0,0-.862,7.35,11.5,11.5,0,0,1-7.243,10.051l-.853.324-29.5,31.654S348.206,492.5,344.64,491.631c0,0,14.373-14.807,21.181-18.049,0,0,8.216-5.943,8.647-8s2.811-3.135,2.811-3.135-1.838-6.916-1.083-8.647a5.557,5.557,0,0,0,.23-3.323c-.2-.648-.59-1.034-1.2-.694a1.717,1.717,0,0,0-.324.237l-18.695-2.811v-9.607s-4.539-5.295-3.891-11.779-.759-6.267-.759-6.267.068-10.952.992-11.866,9.8-5.1,9.8-5.1l27.831,4.944,1.148,5.324s.973,4.234,2.594,6.115,0,4.147,0,4.147a44.082,44.082,0,0,0,2.163,9.192C397.712,436.64,398.451,454.034,397.585,457.383Z" transform="translate(-197.933 -96.445)"/><path class="g" d="M459.227,193.391a17.22,17.22,0,0,0-1.258,5.875,10.051,10.051,0,0,1-13.8-.6c.25-2.354.36-4.192.36-4.192S461.821,187.555,459.227,193.391Z" transform="translate(-265.194 46.509)"/><path class="l" d="M455.53,171.035a10.051,10.051,0,1,1-.279-2.357A10.051,10.051,0,0,1,455.53,171.035Z" transform="translate(-259.286 66.832)"/><path class="g" d="M415.325,238.036s-7.224-3.349-7.674-3.784S392.215,272.3,392.215,272.3L388,291.426s22.478,9.616,27.342,8.319,5.295,0,5.295,0,4.974-27.883,6.595-30.367-1.514-27.776-1.514-27.776l-5.619-7.353Z" transform="translate(-227.235 17.316)"/><path class="g" d="M415.325,234.036s-7.224-3.349-7.674-3.784S392.215,268.3,392.215,268.3L388,287.426s22.478,9.616,27.342,8.32,5.295,0,5.295,0,4.974-27.883,6.595-30.367-1.514-27.776-1.514-27.776l-5.619-7.353Z" transform="translate(-227.235 20.019)"/><path class="h" d="M427.191,267.385a21.454,21.454,0,0,0-1.362,4.335c-.383,1.543-.8,3.382-1.222,5.359-1.913,8.926-4.007,20.676-4.007,20.676s-.133-.4-1.07-.532a11.117,11.117,0,0,0-4.215.532c-4.863,1.3-27.345-8.323-27.345-8.323l.648-2.918,3.566-16.211s15.024-38.475,15.456-38.041c.263.263,3.07,1.621,5.21,2.629,1.365.648,2.464,1.151,2.464,1.151l4.539-3.586.25-.2,5.593,7.35S428.812,264.9,427.191,267.385Z" transform="translate(-227.215 18.661)"/><path class="g" d="M411.332,239.806c.648,2.493-.862,6.591-.862,6.591s-5.188,12.755-6.7,18.649-10.174,17.774-10.174,17.774-1.271,1.274-3.051,3.048c-.2.2-.405.4-.613.616l3.566-16.211s15.024-38.475,15.456-38.041c.263.263,3.07,1.621,5.21,2.629C412.823,236.081,410.9,238.156,411.332,239.806Z" transform="translate(-228.539 18.681)"/><path class="e" d="M371.563,231.867c.648,2.493-.862,6.591-.862,6.591s-5.188,12.755-6.7,18.649-10.174,17.774-10.174,17.774-1.271,1.274-3.051,3.048c-.211.211-.431.428-.648.648-3.476,3.459-8.362,8.31-9.889,9.727-.224.211-.376.347-.441.392a1.367,1.367,0,0,1-.454.2c-1,.272-2.967.075-5.706-.2-3.242-.324-.538-7.023-.538-7.023l.853-.879.778-.8,8.832-9.088.648-.684,2.7-2.785,1.375-14.46.032-.347s-.4-.918-1.021-2.318c-1.65-3.79-4.892-11.1-6.079-13.468-.136-.276-.243-.48-.324-.606,0-.016-.016-.032-.026-.045-.866-1.4,1.511-1.3,1.511-1.3s2.38-.648,1.945-1.621,2.811-1.621,2.7-3.025,1.945-1.621,1.945-1.621,2.918.973,2.594,0,4.539-1.514,4.539-1.514,2.377,1.19,3.673,0,6.617-1.187,6.617-1.187-1.086-4.108,0-5.3,9.231,5.3,9.231,5.3S370.914,229.377,371.563,231.867Z" transform="translate(-189.419 26.62)"/><path class="g" d="M370.61,413.2s8.971,12.645,15.238,8.54-8.43-14.807-8.43-14.807Z" transform="translate(-215.483 -99.378)"/><path class="l" d="M370.61,411.2s8.971,12.645,15.238,8.54-8.43-14.807-8.43-14.807Z" transform="translate(-215.483 -98.027)"/><path class="g" d="M491.807,301.472c.684-5.969,2.668-14.937,1.05-17.657a21.708,21.708,0,0,1-1.829-6.734c-.233-1.514-.418-3.1-.567-4.6-.4-3.991-.522-7.408-.522-7.408s-3.891-17.352-3.135-20.919c.473-2.231-.071-7.82-.545-11.691l.25-.2,5.593,7.35s3.132,25.289,1.511,27.776a21.456,21.456,0,0,0-1.362,4.335l3.093-1.3L494.7,276.8l1.945,23.885Z" transform="translate(-293.637 18.66)"/><path class="e" d="M486.58,220.48s5.59,4.685,7.716,4.792a5.721,5.721,0,0,1-2.95,3.677s5.836.772,8,.438,5.943.211,6.7,1.3a7,7,0,0,0,3.693,2.694,6.644,6.644,0,0,1,2.707,1.514l-9.516,14.048s-3.459,8.647-2.7,10.592-.11,12.862-.7,13.4,1.028,22.264,3.946,22.264c0,0-8,5.4-10.375,3.784s3.028-19.129.648-23.13-2.918-18.747-2.918-18.747-3.891-17.349-3.132-20.915S486.58,220.48,486.58,220.48Z" transform="translate(-293.853 26.621)"/><path class="g" d="M665.379,322.08c-2.889-.9-7.314-.927-8.131,6.809-1.209-2.86-1.968-5.295-1.968-5.295l8.871-3.754S664.7,320.709,665.379,322.08Z" transform="translate(-407.857 -40.525)"/><path class="e" d="M534.112,262.93l5.3.648s1.621,2.163,3.129,2.163,2.7,1.945,2.7,1.945,2.163,1.187,3.566.862,7.24-.859,8.106.058,6.484,1.78,6.484,1.78,2.163,3.349,4.108,3.349,12.752,7.892,13.076,10.7c0,0-10.7-6.809-10.806,8.161,0,0-4.539-4.053-5.3-5.781s-7.781-1.025-7.781-1.025-4.753-2.111-5.512-3.515-5.188,2.237-6.591,1.17-14.159-6.617-14.159-6.617l-3.946-7.415Z" transform="translate(-320.824 -2.066)"/><circle class="k" cx="0.918" cy="0.918" r="0.918" transform="translate(187.928 272.16)"/><circle class="k" cx="0.918" cy="0.918" r="0.918" transform="translate(187.01 291.318)"/><circle class="k" cx="0.918" cy="0.918" r="0.918" transform="translate(187.928 281.235)"/><circle class="k" cx="0.918" cy="0.918" r="0.918" transform="translate(185.279 301.401)"/><path class="g" d="M349.705,711.858c-.451,1.261-1.855.8-1.855.8-4.416-.486-7.091-12.4-5.956-13.763s-.707-4.516-.707-4.516l-2.39.931-2.189-6.724,1.381-1.7c1.375,2.383,3.343,5.81,3.806,6.685a12.233,12.233,0,0,1,1.216,5.836C342.939,701.509,345.383,711.586,349.705,711.858Z" transform="translate(-192.507 -288.562)"/><path class="g" d="M455.277,168.689c-.22-.075-.441-.162-.648-.25a4.215,4.215,0,0,1-1.975-1.3c-.412-.6-.545-1.453-1.187-1.8-.739-.4-1.621.139-2.422.324a5.08,5.08,0,0,1-2.873-.383c-1.381-.509-3.31-1.446-4.727-.477-1.1.752-.674,2.347-.956,3.485-.438,1.767-2.315,2.918-2.668,4.7-.159.788-.055,1.751-.694,2.24a1.653,1.653,0,0,1-.622.272,10.051,10.051,0,1,1,18.782-6.809Z" transform="translate(-259.311 66.808)"/><path class="e" d="M435.735,140.276a5.037,5.037,0,0,0,2.873.379c.814-.191,1.679-.726,2.419-.324.648.347.778,1.193,1.187,1.8a4.092,4.092,0,0,0,1.978,1.3,5.618,5.618,0,0,0,1.761.493,1.994,1.994,0,0,0,1.654-.626,2.564,2.564,0,0,0,.058-2.574,6.352,6.352,0,0,1-.794-2.565c.042-1.07.817-2,.882-3.067A3.428,3.428,0,0,0,445.5,132a21.666,21.666,0,0,1-3.391-1.3c-1.158-.759-1.793-2.075-2.649-3.164A6.05,6.05,0,0,0,434.276,125c-1.229.139-2.344.781-3.566,1.031-1.858.386-3.823-.175-5.671.256a1.945,1.945,0,0,0-1.154.632,2.568,2.568,0,0,0-.019,2.195,5.077,5.077,0,0,1-.2,3.975c-.811,1.313-2.532,1.868-3.281,3.216a2.853,2.853,0,0,0-.075,2.594c.357.746,1.047,1.352,1.154,2.172a5.226,5.226,0,0,1-.3,1.741,1.553,1.553,0,0,0,.386,1.621c.477.324,1.144.243,1.511.648a1.3,1.3,0,0,1,.172,1.115c-.13.648-.405,1.235-.551,1.871a2.292,2.292,0,0,0,.25,1.871c.629.849,1.9.8,2.918.571a2.033,2.033,0,0,0,.82-.324c.648-.49.535-1.452.694-2.24.353-1.783,2.231-2.941,2.668-4.7.282-1.138-.146-2.736.956-3.489C432.421,138.83,434.354,139.767,435.735,140.276Z" transform="translate(-248.88 91.162)"/><path class="g" d="M463.61,533.93s10.177,6.484,10.5,8.971Z" transform="translate(-278.331 -185.202)"/><path class="g" d="M462,549.93s11.672,5.619,11.024,7.564Z" transform="translate(-277.243 -196.014)"/><path class="g" d="M459.61,565.26s6.595,3.459,7.026,5.512Z" transform="translate(-275.628 -206.374)"/><path class="g" d="M468.28,589.26s4.322,3.784,5.188,2.811S468.28,589.26,468.28,589.26Z" transform="translate(-281.487 -222.593)"/><path class="g" d="M449.61,596.6s3.369,5.4,1.748,5.726S449.61,596.6,449.61,596.6Z" transform="translate(-268.87 -227.553)"/><path class="g" d="M394.984,300.6s-5.729,3.456-4,4.322S394.984,300.6,394.984,300.6Z" transform="translate(-229.031 -27.523)"/><path class="g" d="M395.978,261.26s-5.836,10.7-3.135,9.944S395.978,261.26,395.978,261.26Z" transform="translate(-230.026 -0.937)"/><path class="g" d="M589.034,294.26s-3.567,4.2-2.918,6.484Z" transform="translate(-361.064 -23.238)"/><path class="g" d="M614.315,300.6s-5.353,4.753-4.568,5.295Z" transform="translate(-377.034 -27.523)"/><path class="g" d="M633.932,318.61s-.542,3.125.324,3.242Z" transform="translate(-393.318 -39.693)"/><path class="m" d="M441.058,509.5c-1.378,1.783-1.378,4.944-2,6.241-.34.713-1.1,1.945-1.715,2.944-.2-.648-.59-1.034-1.2-.694-.4-2.973-1.1-8.106-1.329-9.14-.324-1.459,3.242-5.35,3.242-5.35s3.485.729,4.377,2.513S442.436,507.718,441.058,509.5Z" transform="translate(-258.859 -164.638)"/><path class="g" d="M359.192,384.368c-3.891.538-11.131,10.913-11.131,10.913s-.95-1.381-2.27-3.31c-1.66-2.448-3.891-5.784-5.512-8.313l9.5-9.8,1.728,1.861s3.352,3.349,3.352,4a6.1,6.1,0,0,0,1.472,1.861C357.593,382.886,359.192,384.368,359.192,384.368Z" transform="translate(-194.987 -77.03)"/><path class="g" d="M359.664,269.676c-.136-.276-.243-.48-.324-.606l4.189.279,2.221,13.786C364.093,279.354,360.851,272.04,359.664,269.676Z" transform="translate(-207.867 -6.215)"/><path class="g" d="M354.085,383.684c-3.476,3.459-8.362,8.31-9.889,9.727-.224.211-.376.347-.441.392a1.368,1.368,0,0,1-.454.2c-1.527-2.244-3.706-5.476-5.392-8.105l.778-.8L347.526,376l1.093,1.177s3.352,3.349,3.352,4A10.126,10.126,0,0,0,354.085,383.684Z" transform="translate(-193.386 -78.476)"/><path class="e" d="M329.9,269.254l-4.863-.324s-1.3,3.025-2.377,3.242-2.487,2.7-2.487,2.7-4.163.759-3.981,2.056-6.4,10.573-6.4,10.573-2.163,4.448-.648,7.691a63.644,63.644,0,0,1,2.918,6.591c.324,1.187,4.163,6.377,4.131,7.35S326,324.372,326,324.372s7.24-10.375,11.131-10.917c0,0-4.322-4-4.322-4.646s-3.327-4-3.327-4l-4.215-4.539s-1.407-.648,0-1.838-2.377-3.891-2.377-3.891-.11-1.945,1.3-2.487,3.242-4.1,3.242-4.1l5.081-2.594Z" transform="translate(-173.579 -6.121)"/><path class="g" d="M317,334.837s5.836-1.187,5.943-.431S317,334.837,317,334.837Z" transform="translate(-179.255 -50.198)"/><path class="g" d="M332,354.43s4.948.648,4.73,1.705S332,354.43,332,354.43Z" transform="translate(-189.392 -63.9)"/><path class="g" d="M344.61,297.76s4.756,6.734,5.4,5.34Z" transform="translate(-197.913 -25.603)"/><g class="n" transform="translate(171.153 218.683)"><path d="M431.682,136.127a7.269,7.269,0,0,0-.292-2.325,7.2,7.2,0,0,1-.214-.973,3.984,3.984,0,0,0,.214,1.621,8.364,8.364,0,0,1,.292,1.676Z" transform="translate(-427.558 -132.83)"/><path d="M502.834,158.019c.126-.973.794-1.858.856-2.853a2.52,2.52,0,0,0-.019-.5c-.127,1.005-.824,1.9-.862,2.918a2.422,2.422,0,0,0,.026.431Z" transform="translate(-475.972 -147.589)"/><path d="M452.949,171.341a1.994,1.994,0,0,1-1.654.626,5.618,5.618,0,0,1-1.761-.493,4.21,4.21,0,0,1-1.978-1.3c-.412-.6-.545-1.449-1.187-1.8-.739-.4-1.621.139-2.422.324a5.036,5.036,0,0,1-2.869-.379c-1.381-.509-3.314-1.446-4.73-.48-1.1.752-.674,2.351-.956,3.489-.438,1.764-2.315,2.918-2.668,4.7-.159.788-.055,1.751-.694,2.24a2.03,2.03,0,0,1-.824.324c-1.031.227-2.3.279-2.918-.571a1.735,1.735,0,0,1-.324-.827,2.049,2.049,0,0,0,.324,1.475c.629.849,1.9.8,2.918.571a2.029,2.029,0,0,0,.824-.324c.648-.49.535-1.453.694-2.24.353-1.783,2.231-2.941,2.668-4.7.282-1.138-.146-2.736.956-3.489,1.417-.973,3.349-.029,4.73.48a5.029,5.029,0,0,0,2.869.379c.817-.191,1.683-.726,2.422-.324.648.347.775,1.193,1.187,1.8a4.092,4.092,0,0,0,1.978,1.3,5.618,5.618,0,0,0,1.761.493,1.994,1.994,0,0,0,1.654-.626,1.916,1.916,0,0,0,.35-1.488,1.621,1.621,0,0,1-.35.84Z" transform="translate(-425.377 -156.21)"/><path d="M421.467,166.284c-.107-.82-.8-1.427-1.154-2.172a2.755,2.755,0,0,1-.253-.892,2.824,2.824,0,0,0,.253,1.54c.347.723,1,1.32,1.138,2.1A2.022,2.022,0,0,0,421.467,166.284Z" transform="translate(-420.04 -153.367)"/><path d="M425.53,183.188a1.232,1.232,0,0,0-.185-1.028c-.366-.418-1.063-.324-1.511-.648a1.135,1.135,0,0,1-.425-.772,1.46,1.46,0,0,0,.425,1.42c.425.308,1.144.243,1.511.648A.886.886,0,0,1,425.53,183.188Z" transform="translate(-422.301 -165.207)"/></g></g></g></svg>