<svg xmlns="http://www.w3.org/2000/svg" width="253.013" height="278.361" viewBox="0 0 253.013 278.361"><defs><style>.a{fill:#3f3d56;}.b{opacity:0.1;}.c{fill:#ec741d;}.d{fill:#575a89;}.e{fill:#a0616a;}.f{fill:#2f2e41;}.g{fill:#f2f2f2;}</style></defs><g transform="translate(-355 -1442)"><g transform="translate(355 1442)"><path class="a" d="M525.9,717.033c0,10.48-56.638,18.976-126.506,18.976s-126.507-8.5-126.507-18.976c0-7.419,28.391-13.846,69.766-16.964,17.062-1.289,36.34-2.012,56.74-2.012,8.386,0,16.581.122,24.506.355C482.034,700.126,525.9,707.81,525.9,717.033Z" transform="translate(-272.882 -457.648)"/><ellipse class="b" cx="48.562" cy="5.917" rx="48.562" ry="5.917" transform="translate(61.621 251.427)"/><ellipse class="a" cx="45.91" cy="48.97" rx="45.91" ry="48.97" transform="translate(64.07 163.689)"/><rect class="c" width="28.566" height="26.117" transform="translate(95.9 241.633)"/><path class="d" d="M394.132,607.614l-1.632,8.978,10.61,1.632,6.937-4.081-.408-6.529Z" transform="translate(-232.326 -359.656)"/><path class="e" d="M533.666,303.213s-.816,9.386-2.856,9.794,4.489,16.732,4.489,16.732h9.794l7.754-2.04-3.673-8.978s-4.9-6.529-1.224-11.834S533.666,303.213,533.666,303.213Z" transform="translate(-425.319 -223.794)"/><path class="b" d="M533.666,303.213s-.816,9.386-2.856,9.794,4.489,16.732,4.489,16.732h9.794l7.754-2.04-3.673-8.978s-4.9-6.529-1.224-11.834S533.666,303.213,533.666,303.213Z" transform="translate(-425.319 -223.794)"/><path class="f" d="M480.573,477.189s-10.61,20.4-2.04,24.485,10.61,3.673,10.61,4.9-1.632.816-.816,2.857-1.632,10.2.816,15.1,1.632,8.57,1.632,8.57a6.594,6.594,0,0,0,.816,2.04c.816,1.632,1.224,2.857.816,3.673s-2.857,6.121-.408,7.346,15.1,2.041,16.323,0-1.224-3.265,0-4.489,2.04-1.632,1.224-2.448-1.632-11.018-1.632-11.018,2.04-11.834,1.224-13.467-2.04-3.265-1.224-4.489,1.632-.816,2.04-2.448,1.224-5.305,1.224-5.305l4.489-.408,10.61,2.04s11.834,13.059,24.893,17.139c0,0,3.673,3.673,4.9,3.673s1.224,0,.816.816-1.632.816-.816,1.632,2.04-.408,1.224.816-1.632,1.224-.816,2.04-.408,5.305-.408,5.713-3.673,38.768-2.448,39.584,18.364,3.265,19.588,0-.816-7.346-.816-7.346,6.121-48.97,4.489-52.235S569.536,498,538.929,488.616c0,0-8.57-1.632-8.57-2.857s-.816-8.978-2.448-9.386-11.018-.816-11.018-.816l-11.834,3.673-16.323-2.857Z" transform="translate(-392.63 -325.947)"/><path class="f" d="M519.526,645.781l-2.04,7.346s-1.632,11.834.408,14.691a12.835,12.835,0,0,0,9.771,5.473,6.558,6.558,0,0,0,6.847-4.537,2.045,2.045,0,0,0,.113-.528c0-.816-1.224-10.61-1.224-10.61l-2.04-10.2-.408-2.857Z" transform="translate(-417.3 -425.981)"/><path class="f" d="M664.621,728.079s-2.04-2.04-2.448,0-2.04,10.61.816,11.018,30.2,4.489,33.055,2.857,8.162-4.081,4.9-5.3-12.651-4.9-12.651-4.9-5.305-6.937-6.121-7.346-5.305.408-7.346,2.04S664.621,728.079,664.621,728.079Z" transform="translate(-502.814 -473.183)"/><circle class="e" cx="12.651" cy="12.651" r="12.651" transform="translate(105.49 62.688)"/><path class="d" d="M513.607,339.944l-4.9-5.305-5.428-10.61s-3.958-1.224-4.774.816S483,333.415,483,333.415s3.673,34.279,2.04,37.544-4.489,16.323-2.04,17.548,13.875,0,17.548,1.632,14.283,1.632,17.14-.408,3.673-3.673,6.529-2.448c2.432,1.042,8.117-34.59,9.754-45.208a4.833,4.833,0,0,0-2-4.7c-3.662-2.568-10.256-6.995-11.424-6.411C518.912,331.782,513.607,339.944,513.607,339.944Z" transform="translate(-396.69 -236.04)"/><path class="d" d="M593.2,359.557h0a4.839,4.839,0,0,1,3.636,4.161l3.3,29.71s-8.162,17.548-12.243,5.713S593.2,359.557,593.2,359.557Z" transform="translate(-458.732 -257.285)"/><path class="d" d="M590.87,446.005l8.978-2.448s1.632,11.426,3.265,11.426-5.713,6.529-9.386,5.713-8.978-3.673-9.386-5.713,3.673-10.61,3.673-10.61Z" transform="translate(-457.222 -307.006)"/><path class="f" d="M526.988,267.544c.86-1.9.711-4.109,1.422-6.067a7.234,7.234,0,0,1,11-3.42c.915.652,1.832,1.569,2.949,1.444,1.2-.134,2.275-1.476,3.381-.984,1.226.545.894,2.741,2.136,3.248a1.569,1.569,0,0,0,1.8-.741,4.58,4.58,0,0,0,.525-2.031,9.717,9.717,0,0,0-.429-5.16,12.363,12.363,0,0,1-.828-1.669,5.708,5.708,0,0,1-.157-1.646,11.793,11.793,0,0,0-1.186-5.948,8.623,8.623,0,0,0-5.457-3.763,20.821,20.821,0,0,0-6.773-.272c-3.739.317-7.639,1-10.585,3.32a4.141,4.141,0,0,0-1.018,1.069,5.517,5.517,0,0,0-.542,1.568,32.422,32.422,0,0,1-2.843,7.459,16.178,16.178,0,0,0-1.467,3.169,4.1,4.1,0,0,0,.363,3.371,12.9,12.9,0,0,0,2.052,1.849c.663.637.973,1.863,1.707,2.345.641.421,1.408.124,2.062.57C525.939,265.828,526,267.084,526.988,267.544Z" transform="translate(-418.397 -186.748)"/><path class="g" d="M564.382,375.006l1.224-2.449s17.956,5.305,21.629,10.2c0,0,8.978-5.713,13.875-4.9l4.9.816-15.1,13.467-19.18-1.632Z" transform="translate(-445.425 -264.98)"/><path class="c" d="M538.114,372.557l-16.731,23.261,24.077,11.835s2.251,1.224,3.982,0l16.014-7.346,15.1-21.629-15.1,7.754s-1.632-3.265-4.9-1.632Z" transform="translate(-419.973 -264.98)"/><path class="e" d="M622.422,439.936l3.265-8.57s7.346-9.386,3.265-13.875-8.57,13.059-8.57,13.059Z" transform="translate(-478.572 -291.142)"/><path class="e" d="M533.079,444.538l7.124-5.775s11.063-4.434,9.785-10.364-13.965,7-13.965,7Z" transform="translate(-426.896 -297.112)"/><path class="b" d="M475.732,365.157h-.408s-6.325-7.55-7.55,2.653-5.305,44.073,5.305,45.3a25.8,25.8,0,0,0,18.16-5.1s7.754-11.835,4.9-11.835a76.766,76.766,0,0,0-8.57-.408c-3.658.227-6.944,1.257-6.733.2C481.242,393.927,487.159,368.014,475.732,365.157Z" transform="translate(-387.178 -259.008)"/><path class="d" d="M472.161,348.373l-1.632-.816s-6.529,1.224-7.754,11.426-5.305,44.073,5.305,45.3,24.893-1.632,24.893-1.632,2.857-15.507,0-15.507-17.548,2.04-17.14,0S483.587,351.23,472.161,348.373Z" transform="translate(-384.218 -250.182)"/><path class="d" d="M338,343.11l4.5-6.9,2.846,11.386L338,350.864Z" transform="translate(-200.067 -199.009)"/><circle class="g" cx="11.018" cy="11.018" r="11.018" transform="translate(34.472 23.715)"/><rect class="g" width="26.117" height="26.117" transform="translate(32.432 116.759)"/><path class="g" d="M352.824,0l6.611,11.45,6.61,11.45H339.6l6.61-11.45Z" transform="translate(-201.016)"/></g></g></svg>