<svg xmlns="http://www.w3.org/2000/svg" width="248.049" height="310.37" viewBox="0 0 248.049 310.37"><defs><style>.a{fill:#2f2e41;}.b,.c,.d{fill:#3f3d56;}.b{opacity:0.67;}.c{opacity:0.73;}.e{fill:#fbbebe;}.f{fill:#575a89;}.g{fill:#d66a1c;}.h{opacity:0.4;}.i{fill:#f2f2f2;}.j{fill:#ec741d;}</style></defs><g transform="translate(-358 -330.991)"><g transform="translate(-471.949 -317.528)"><circle class="a" cx="8.518" cy="8.518" r="8.518" transform="translate(939.711 678.033)"/><path class="a" d="M879.22,305.442a8.518,8.518,0,0,1,7.62-8.47,8.618,8.618,0,0,0-.9-.048,8.518,8.518,0,1,0,0,17.036,8.616,8.616,0,0,0,.9-.048A8.518,8.518,0,0,1,879.22,305.442Z" transform="translate(59.594 378.868)"/><rect class="b" width="5.044" height="199.225" transform="translate(1003.398 749.041)"/><path class="c" d="M1013.832,369.672c.321,69.664-48.691,126.365-48.691,126.365s-49.533-56.247-49.854-125.911,48.691-126.365,48.691-126.365S1013.508,300.008,1013.832,369.672Z" transform="translate(41.158 404.758)"/><rect class="d" width="2.594" height="102.466" transform="translate(905 842.779)"/><path class="d" d="M818.619,586.408c.165,35.83-25.043,64.993-25.043,64.993s-25.476-28.929-25.641-64.759,25.043-64.993,25.043-64.993S818.454,550.578,818.619,586.408Z" transform="translate(112.916 269.429)"/><ellipse class="d" cx="70.282" cy="10.773" rx="70.282" ry="10.773" transform="translate(888.443 937.342)"/><path class="a" d="M887.417,328.292c-5.954-10.061-17.735-10.53-17.735-10.53s-11.479-1.468-18.843,13.855c-6.864,14.283-16.337,28.073-1.525,31.416l2.675-8.327,1.657,8.947a57.948,57.948,0,0,0,6.337.108c15.862-.512,30.968.15,30.482-5.542C889.819,350.653,893.147,337.973,887.417,328.292Z" transform="translate(77.105 368.738)"/><path class="e" d="M889.234,371.362s7.7,10.773,3.078,19.494,10.773,17.955,10.773,17.955l11.286-24.625s-13.338-8.721-9.747-16.929Z" transform="translate(53.844 344.616)"/><circle class="e" cx="13.338" cy="13.338" r="13.338" transform="translate(934.87 693.918)"/><path class="e" d="M809.255,361.049,820.4,346.668s3.925-15.075,9.609-14.311-2.245,18.078-2.245,18.078L816.69,366.355Z" transform="translate(92.793 361.626)"/><path class="e" d="M871.469,708.554l3.591,18.981,7.7,2.052L880.7,707.015Z" transform="translate(87 205.446)"/><path class="e" d="M1022.47,666.119l13.851,18.981,5.643,2.565,4.617-7.7-13.851-17.955Z" transform="translate(13.464 227.36)"/><path class="f" d="M887.658,412.778,879.1,401.513s-16.58,3.057-18.119,4.6,4.1,29.755,4.1,29.755,1.026,7.7,5.643,11.8l4.617,3.078,37.963-7.7,1.427-16.891a44.33,44.33,0,0,0-11.688-33.9h0l-6.605.9Z" transform="translate(67.732 332.441)"/><path class="f" d="M829.681,399.83l-2.565-1.026-11.8-1.026s-4.1-1.026-3.078-3.078,2.052-2.565,0-3.078-2.565-1.026-2.052-2.565,3.591-4.617,3.591-4.617l-8.721-7.182s-.472.334-1.235.952c-4.33,3.506-18.031,16.154-8,28.8,11.8,14.877,25.651,23.6,36.937,20.52Z" transform="translate(101.085 339.746)"/><path class="g" d="M884.014,496.388v7.182s-4.617,8.721-3.078,16.929,2.052,12.312,2.052,12.312a70.046,70.046,0,0,0,3.591,20.52c3.591,10.26-8.208,77.465,6.669,78.491s23.085,2.052,27.7-3.078-7.7-93.368-7.7-93.368,42.067,87.725,50.788,84.134,30.781-11.8,28.216-16.416-67.2-107.219-67.2-107.219L923,491.258Z" transform="translate(58.038 284.229)"/><path class="a" d="M923.01,791.218s-8.208-.513-8.208,2.052-4.1,11.286-4.1,11.286-3.078,10.26,5.13,9.234,13.338-10.26,13.338-10.26l-2.052-9.747Z" transform="translate(43.667 138.172)"/><path class="a" d="M1095.874,751.364s-7.182-4.617-6.669-1.539,1.026,11.286,4.617,11.8,14.364,3.591,14.877,4.617,12.825,5.13,12.825-1.539-7.7-11.8-7.7-11.8l-8.721-6.669s-5.643-.513-6.669,3.078S1095.874,751.364,1095.874,751.364Z" transform="translate(-43.527 160.071)"/><path class="a" d="M848.674,279.4l-11.638-6.1L820.963,275.8l-3.325,14.686,8.278-.319,2.313-5.4v5.307l3.819-.147,2.217-8.59,1.386,9.144,13.578-.277Z" transform="translate(113.215 416.657)"/><path class="e" d="M893.75,494.811,875.8,495.3s-15.315,2.98-14.456-3.2,15.8-4.02,15.8-4.02l16.355-2.495Z" transform="translate(67.443 286.994)"/><path class="f" d="M934.14,390.521a3.831,3.831,0,0,1,4.225,2.631c3.514,11.073,14.339,48.127,3.583,53.211-12.668,5.988-21.913,5.724-21.913,5.724L915.088,439.9l4.5-4.227,4.809-30.922,2.3-13.108Z" transform="translate(41.254 333.308)"/><path class="h" d="M878.976,379.515l-2.052,20.52-17.955,7.7,20.007-4.617Z" transform="translate(93.087 364.935)"/><path class="i" d="M636,237.808h-.935v-.935h-.183v.935h-.935v.183h.935v.935h.183v-.935H636Z" transform="translate(202.67 434.4)"/><path class="i" d="M623,284.808h-.935v-.935h-.183v.935h-.935v.183h.935v.935h.183v-.935H623Z" transform="translate(209 411.511)"/><g transform="translate(847.878 676.913) rotate(-60)"><rect class="d" width="12.825" height="38.989" rx="6.413" transform="translate(6.421 51.143)"/><rect class="d" width="16.929" height="50.275" rx="8" transform="translate(4.369 19.849)"/><rect class="d" width="22.059" height="36.937" rx="8" transform="translate(1.804 4.459)"/><g transform="translate(0 1.3) rotate(-3)"><ellipse class="j" cx="11.906" cy="5.384" rx="11.906" ry="5.384" transform="translate(0.557 0.802) rotate(2.966)"/><path class="h" d="M8.338,12.866C10.292,6.839,9.761,1.222,7.189,0a2.5,2.5,0,0,1,.456.1c2.828.917,3.477,6.731,1.449,12.986S3.129,23.669.3,22.751a2.484,2.484,0,0,1-.3-.12C2.782,22.985,6.417,18.791,8.338,12.866Z" transform="matrix(0.259, 0.966, -0.966, 0.259, 22.177, 0)"/></g></g></g></g></svg>