<svg xmlns="http://www.w3.org/2000/svg" width="373" height="257.649" viewBox="0 0 373 257.649"><defs><style>.a{fill:#f2f2f2;}.b{fill:#3f3d56;}.c{opacity:0.1;}.d,.f,.g{fill:#ec741d;}.e{fill:#2f2e41;}.f{opacity:0.2;}.g{opacity:0.5;}.h{fill:#9f616a;}.i{fill:#555aa8;}.j,.k{fill:none;stroke-miterlimit:10;stroke-width:2px;}.j{stroke:#f2f2f2;}.k{stroke:#3f3d56;}</style></defs><g transform="translate(-291 -2253)"><g transform="translate(152 2045)"><g transform="translate(139 208)"><path class="a" d="M648.093,119.274,599.7,152.349h71Z" transform="translate(-362.995 -72.195)"/><path class="a" d="M630.67,212.022h-79.2l-24.144,16.5H641.951Z" transform="translate(-319.188 -128.335)"/><path class="a" d="M402.694,262.08l-76.526,52.307,54.511,79.749L539.244,285.752l-16.18-23.672Z" transform="translate(-197.427 -158.634)"/><ellipse class="a" cx="159.857" cy="7.894" rx="159.857" ry="7.894" transform="translate(53.286 241.861)"/><ellipse class="a" cx="45.984" cy="5.921" rx="45.984" ry="5.921" transform="translate(0 229.23)"/><ellipse class="b" cx="5.445" cy="3.152" rx="5.445" ry="3.152" transform="translate(120.936 133.303)"/><path class="b" d="M495,348.782H372.638l3.009-10.832,2.6-9.37,4.419-15.9H485.254l4.293,15.9,2.937,10.889Z" transform="translate(-225.554 -189.259)"/><path class="c" d="M497.1,363.858H380.261v-1.518l2.6-9.37h111.3Z" transform="translate(-230.169 -213.648)"/><path class="d" d="M0,0H15.9V12.322H0Z" transform="translate(118.428 135.452)"/><rect class="b" width="202.88" height="108.318" transform="translate(106.966 141.47)"/><rect class="d" width="202.88" height="26.936" transform="translate(106.966 182.16)"/><circle class="e" cx="50.29" cy="50.29" r="50.29" transform="translate(158.116 145.338)"/><circle class="b" cx="46.708" cy="46.708" r="46.708" transform="translate(161.698 148.92)"/><circle class="e" cx="35.533" cy="35.533" r="35.533" transform="translate(172.874 160.095)"/><circle class="f" cx="3.439" cy="3.439" r="3.439" transform="translate(275.173 145.481)"/><circle class="g" cx="3.439" cy="3.439" r="3.439" transform="translate(285.49 145.481)"/><circle class="d" cx="3.439" cy="3.439" r="3.439" transform="translate(295.805 145.481)"/><rect class="e" width="24.071" height="10.889" transform="translate(196.228 125.996)"/><path class="h" d="M175.273,344.082l2.107-2.107s5.385-9.365,0-8.663-5.385,5.385-5.385,5.385v5.385Z" transform="translate(-154.432 -250.522)"/><path class="h" d="M392.059,408.462l2.107-.7s5.619-8.429,6.321-4.683-2.81,8.9-2.81,8.9h-5.619Z" transform="translate(-287.635 -292.192)"/><rect class="b" width="94.354" height="92.012" transform="matrix(0.97, 0.243, -0.243, 0.97, 43.865, 0)"/><rect class="f" width="81.032" height="56.783" transform="matrix(0.97, 0.243, -0.243, 0.97, 48.38, 7.026)"/><ellipse class="e" cx="9.42" cy="7.843" rx="9.42" ry="7.843" transform="translate(44.729 76.819)"/><path class="e" d="M220.356,489.671s-3.512,9.6-4.214,33.949-1.4,39.568,1.639,41.675,7.492,1.639,7.726,1.171,1.4-30.9,1.4-30.9L233,512.849l6.79,15.453v26.925s5.151,4.682,7.258.234,3.512-27.159,3.512-27.159,2.575-38.631-1.873-43.314S220.356,489.671,220.356,489.671Z" transform="translate(-180.786 -341.56)"/><path class="e" d="M210.485,689.136a2.985,2.985,0,0,0-4.683.7c-2.107,3.044-9.131,9.6-7.492,10.77s10.068,1.639,11,.468c0,0,6.79-3.044,6.79-3.746s-.937-8.429-1.873-8.194S210.72,691.244,210.485,689.136Z" transform="translate(-170.213 -465.401)"/><path class="e" d="M278.363,661.39H282.9s-1.26,3.278-.089,3.278,11.941,8.9,7.726,9.833-16.155-3.278-16.623-4.683,1.639-7.726,1.639-7.726l2.81,1.4Z" transform="translate(-216.082 -449.127)"/><path class="h" d="M247.211,351.3s-.468,7.96-2.81,8.663,7.492,7.96,7.492,7.96l6.79-8.9s-2.575-4.448-1.639-7.726S247.211,351.3,247.211,351.3Z" transform="translate(-198.041 -260.553)"/><path class="c" d="M247.211,351.3s-.468,7.96-2.81,8.663,7.492,7.96,7.492,7.96l6.79-8.9s-2.575-4.448-1.639-7.726S247.211,351.3,247.211,351.3Z" transform="translate(-198.041 -260.553)"/><path class="i" d="M229.323,371.576s-8.194-3.044-9.365-2.341-12.175,5.619-12.409,6.556,1.4,14.516,1.4,14.516,2.81,1.171,3.044,6.087,6.556,12.643,4.448,17.794-4.214,7.024-.234,7.726,22.008-.468,22.945-2.107,6.321-3.98,7.96-3.512-.936-24.349-.936-24.349l1.4-3.512,4.683-12.877s-7.024-7.96-13.814-7.258C238.455,368.3,230.962,369.235,229.323,371.576Z" transform="translate(-175.939 -271.695)"/><path class="i" d="M187.131,368.692l-3.512-.7s-3.512,2.341-4.683,2.341-1.171.936-1.171.936-4.448-6.79-3.512-14.516c0,0-5.385-2.575-5.619-.7s-2.107,23.179,1.873,24.583,17.56,1.639,17.56,1.639Z" transform="translate(-152.009 -263.894)"/><path class="i" d="M308.727,385.568H312l8.663,8.663s2.107-.468,2.81.937,5.385,1.171,5.385,1.171l12.409,1.171s1.639,5.385.468,6.321S319.965,405,319.965,405s-1.873-.937-3.044,0-9.6-4.917-10.536-6.556S308.727,385.568,308.727,385.568Z" transform="translate(-235.676 -282.175)"/><circle class="h" cx="8.663" cy="8.663" r="8.663" transform="translate(45.892 77.171)"/><path class="e" d="M251.343,319.059s-1.482-3.852.667-5.112l.593,1.7s5.408-3.26,6.816-2.519l-1.333,1.778s6.3,0,6.742,2.445l-2.222.074a5.663,5.663,0,0,1,2.445,4.075l-4.741.3,2.3,1.333s-8.594,1.185-10.668-2.222Z" transform="translate(-202.16 -238.264)"/><path class="e" d="M244.064,324.016a5.768,5.768,0,0,0,5.76,1.25c3.249-1.218,0-5.686,0-5.686l-2.166-1.083Z" transform="translate(-198.055 -241.577)"/><rect class="j" width="8.684" height="8.684" transform="translate(82.553 54.124) rotate(-27.672)"/><rect class="d" width="8.684" height="8.684" transform="translate(63.538 42.918) rotate(30)"/><circle class="k" cx="4.342" cy="4.342" r="4.342" transform="translate(215.906 108.844)"/><circle class="k" cx="4.342" cy="4.342" r="4.342" transform="translate(202.486 92.266)"/><circle class="k" cx="4.342" cy="4.342" r="4.342" transform="translate(224.589 79.636)"/><circle class="j" cx="4.342" cy="4.342" r="4.342" transform="translate(77.758 31.876)"/></g></g></g></svg>