<svg xmlns="http://www.w3.org/2000/svg" xmlns:xlink="http://www.w3.org/1999/xlink" width="373.303" height="251.948" viewBox="0 0 373.303 251.948"><defs><style>.a,.h{fill:#ec741d;}.a,.f,.o{opacity:0.1;}.b{fill:#30374e;}.c{fill:#6c63ff;}.d{fill:#afc0e0;}.e{fill:#fff;opacity:0.2;}.g{fill:#e3e8f4;}.i{opacity:0.25;}.j{fill:url(#a);}.k{fill:#434175;}.l{opacity:0.05;}.m{fill:#565387;}.n{fill:#ee8e9e;}</style><linearGradient id="a" x1="0.5" y1="1" x2="0.5" gradientUnits="objectBoundingBox"><stop offset="0" stop-color="gray" stop-opacity="0.251"/><stop offset="0.54" stop-color="gray" stop-opacity="0.122"/><stop offset="1" stop-color="gray" stop-opacity="0.102"/></linearGradient></defs><g transform="translate(-300 -1100)"><g transform="translate(-567.698 802)"><path class="a" d="M32.523,255.042c6.452-10.539,21.042-8.7,31.388-3.2s20.671,13.713,32.057,12.135c9.6-1.331,17.473-9.7,21.727-19.362s5.5-20.549,6.7-31.215q2.256-20.1,4.509-40.227c.55-4.906,1.2-10.084,3.959-13.966,3.645-5.12,10.327-6.695,16.043-5.156s10.59,5.668,14.76,10.273c13.358,14.747,20.927,34.681,32.6,51.092,2.378,3.341,5.063,6.644,8.615,8.257,5.12,2.32,11,.678,16-1.9,16.321-8.414,27.286-25.583,38.061-41.6,5.242-7.786,11.633-16.113,20.354-16.961,9.175-.912,17.141,6.906,22.533,15.185,17.307,26.639,21.016,63.007,41.924,86.241a33.988,33.988,0,0,0,8.759,7.332,22.6,22.6,0,0,0,3.392,1.488c18.242,6.314,24.322,31.66,10.83,46.689-.291.32-.589.64-.89.96-2,2.115-4.272,4.116-6.98,4.746-2.519.582-5.12-.09-7.617-.816-15.957-4.656-31.721-11.774-48.218-11.428-16.053.32-31.279,7.735-47.153,10.4-10.673,1.8-21.531,1.437-32.323,1.05q-53.912-1.939-107.8-4.512c-17.832-.819-35.67-1.6-53.5-2.512-13.736-.714-22.485-2.285-24.079-18.226C36.782,285.844,24.25,268.56,32.523,255.042Z" transform="translate(866.95 175.597)"/><ellipse class="b" cx="86.404" cy="12.075" rx="86.404" ry="12.075" transform="translate(992.407 525.799)"/><path class="c" d="M178.46,642.8s4.224-.96,6.993,1.879c0,0-1.779,1.6-5.965-.173Z" transform="translate(695.162 -157.016)"/><path class="c" d="M173.935,643s-2.5,3.546-.915,7.185c0,0,2.163-1.04,2.1-5.584Z" transform="translate(699.22 -157.259)"/><path class="c" d="M168.2,623.619s1.5-3.248,8.641.678a3.844,3.844,0,0,1-3.8,2.2C170,626.531,169.1,625.216,168.2,623.619Z" transform="translate(702.139 -143.223)"/><path class="c" d="M223.53,558.256a4.848,4.848,0,0,1,4.231,1.136s-1.079.96-3.607-.106Z" transform="translate(664.516 -99.57)"/><path class="c" d="M220.812,558.39a4.843,4.843,0,0,0-.55,4.343s1.306-.64,1.28-3.376Z" transform="translate(666.956 -99.727)"/><path class="c" d="M217.34,546.662s.906-1.962,5.216.413a2.322,2.322,0,0,1-2.3,1.328A2.8,2.8,0,0,1,217.34,546.662Z" transform="translate(668.725 -91.235)"/><path class="c" d="M212.131,547.91s-2.163-.1-2.042,4.82a2.323,2.323,0,0,0,2.24-1.427A2.807,2.807,0,0,0,212.131,547.91Z" transform="translate(673.658 -92.6)"/><path class="c" d="M211.75,531.668s.982-3.421,5.514-1.338c0,0-.79,3.133-4.989,2.445Z" transform="translate(672.526 -80.19)"/><path class="c" d="M206.51,516.833s2.045-3.52,6.285-.666c0,0-1.2,3.264-5.86,1.847Z" transform="translate(676.089 -70.258)"/><path class="c" d="M201.18,535.109s-3.143-1.67-4.8,3.04c0,0,2.807,1.6,5.226-1.895Z" transform="translate(682.977 -83.701)"/><path class="d" d="M193.957,527.8a12.24,12.24,0,0,0-2.4.685c-17.262,6.893-16.974,52.017-16.974,52.017H169.5s-1.6-19.365-8.574-46.993c-6.282-24.857,19.483-47.134,24.716-51.358.589-.47.915-.72.915-.72C212.509,490.967,193.957,527.8,193.957,527.8Z" transform="translate(707.751 -47.396)"/><path class="e" d="M188.48,482.228c-.6-.275-1.216-.538-1.872-.778,0,0-.32.25-.915.72-5.232,4.224-31,26.5-24.716,51.358,6.973,27.628,8.558,46.986,8.558,46.986h2.858s-1.584-19.365-8.574-46.993C157.563,508.78,183.078,486.586,188.48,482.228Z" transform="translate(707.717 -47.41)"/><path class="d" d="M449.922,533.515c-6.989,27.628-8.564,46.986-8.564,46.986h-5.092s.32-47.159-18.155-52.424a10.083,10.083,0,0,0-1.219-.285s-18.562-36.832,7.4-46.362c0,0,.262.2.736.576C429.838,485.856,456.275,508.37,449.922,533.515Z" transform="translate(537.405 -47.396)"/><path class="f" d="M248.554,527.812a12.241,12.241,0,0,0-2.4.685,313.369,313.369,0,0,1-5.914-46.327c.589-.47.915-.72.915-.72C267.106,490.98,248.554,527.812,248.554,527.812Z" transform="translate(653.153 -47.41)"/><path class="f" d="M425.058,482.052a288.348,288.348,0,0,1-6.916,46.084,10.058,10.058,0,0,0-1.219-.285s-18.562-36.832,7.4-46.362C424.312,481.476,424.574,481.671,425.058,482.052Z" transform="translate(537.385 -47.436)"/><path class="g" d="M301.008,245.746q-2.688,10.606-6.3,21.762s-11.431,11.908-39.043,0a209.442,209.442,0,0,1-5.792-21c-6.679-29.068-14.689-84.462,2.378-141.359a211.776,211.776,0,0,1,21.5-48.791s14.58,16.741,25.282,48.782S316.542,184.531,301.008,245.746Z" transform="translate(651.933 241.64)"/><circle class="d" cx="22.924" cy="22.924" r="22.924" transform="translate(905.078 369.036)"/><path class="h" d="M330.1,315.464a16.257,16.257,0,0,1-26.562,12.574,16.426,16.426,0,0,1-3.047-3.306,16.011,16.011,0,0,1-1.05-1.725,16.225,16.225,0,0,1-1.853-7.543v-.387a16.277,16.277,0,0,1,11.841-15.272,16.806,16.806,0,0,1,3.917-.6h.487A16.257,16.257,0,0,1,330.1,315.464Z" transform="translate(614.157 76.509)"/><path class="d" d="M320.694,105.142c-26.009,12.452-46.794,0-46.794,0A211.779,211.779,0,0,1,295.415,56.36S310,73.1,320.694,105.142Z" transform="translate(630.266 241.64)"/><path class="d" d="M317.63,648.14q-1.824,7.181-4.064,14.609-1.063,3.543-2.24,7.143s-11.431,11.908-39.043,0c0,0-.9-2.525-2.24-7.143-1-3.488-2.256-8.164-3.562-13.854a69.275,69.275,0,0,0,24.869,4.388A68.522,68.522,0,0,0,317.63,648.14Z" transform="translate(635.311 -160.754)"/><path class="g" d="M321.134,693.79q-1.062,3.543-2.24,7.143s-11.431,11.908-39.043,0c0,0-.9-2.525-2.24-7.143C277.607,693.79,305.75,701.887,321.134,693.79Z" transform="translate(627.743 -191.795)"/><path class="e" d="M309.454,299.735l-.035.026L297.61,315.007v.387a16.226,16.226,0,0,0,1.853,7.543l13.915-23.8Z" transform="translate(614.143 76.556)"/><path class="e" d="M319.378,341.47l-9.671,14.481a16.426,16.426,0,0,1-3.047-3.306l11.521-12.366Z" transform="translate(607.99 48.582)"/><path class="e" d="M261.805,267.508a209.767,209.767,0,0,1-5.792-21c-6.679-29.071-14.689-84.465,2.378-141.362a212.553,212.553,0,0,1,18.834-44.193c-2.167-3.037-3.52-4.586-3.52-4.586A211.76,211.76,0,0,0,252.2,105.148c-17.067,56.9-9.057,112.291-2.378,141.363a209.775,209.775,0,0,0,5.793,21c10.91,4.7,19.291,5.687,25.442,5.162A60.61,60.61,0,0,1,261.805,267.508Z" transform="translate(651.967 241.633)"/><path class="c" d="M964.282,695.542c1.45,2.4,10.01,6.743,10.01,6.743s.141-9.6-1.309-12a5.083,5.083,0,0,0-8.7,5.258Z" transform="translate(161.323 -187.741)"/><path class="c" d="M998.5,739.568c-2.723.685-11.857-2.26-11.857-2.26s6.654-6.916,9.377-7.6a5.082,5.082,0,1,1,2.48,9.857Z" transform="translate(145.622 -216.115)"/><path class="i" d="M964.282,695.542c1.45,2.4,10.01,6.743,10.01,6.743s.141-9.6-1.309-12a5.083,5.083,0,0,0-8.7,5.258Z" transform="translate(161.323 -187.741)"/><path class="i" d="M998.5,739.568c-2.723.685-11.857-2.26-11.857-2.26s6.654-6.916,9.377-7.6a5.082,5.082,0,1,1,2.48,9.857Z" transform="translate(145.622 -216.115)"/><path class="c" d="M995.973,703.27c.352,2.787,6.42,10.222,6.42,10.222s4.02-8.714,3.664-11.5a5.083,5.083,0,0,0-10.084,1.28Z" transform="translate(139.304 -194.35)"/><path class="j" d="M777.161,470.315l-16.446-23.852s-.32-5.9-1.382-7.284-.231-4.448-.231-4.448,1.152-1.687.154-1.84-.154-3.914-.154-3.914L759.025,423s.922-5.76.154-7.13a2.263,2.263,0,0,1,.077-2.455s.922-3.3,0-4.141-.691-5.985-.461-10.049-1.616-6.365-1.616-6.98-6.081-6.6-6.081-7.13-3.84-2.762-6.148-3.376-3.46-1.072-3.383-1.379-3.613-1.533-3.613-1.533-3.229-.23-4.461-1.843-4.989-2.074-5.1-2.09c-.022-.106-.048-.214-.07-.32s-.048-.23-.07-.346c.291-.49.56-.989.8-1.5.073-.157.144-.32.211-.467a6.565,6.565,0,0,0,3.786-1.174,5.155,5.155,0,0,0,1.84-3.677,8.062,8.062,0,0,0-.9-4.087c-.672-1.383-1.661-2.813-1.322-4.311.15-.64.537-1.216.736-1.85a4.872,4.872,0,0,0-.554-3.632c-.583-1.114-1.392-2.093-2.039-3.171a12.387,12.387,0,0,1-1.623-4.48,7,7,0,0,0-.6-2.442,4.546,4.546,0,0,0-1.347-1.36,13.464,13.464,0,0,0-8.263-2.506c-2.093.074-4.18.64-6.257.381a22.517,22.517,0,0,1-3.655-.96c-2.579-.762-5.552-1.075-7.8.4s-3.139,4.378-4.66,6.647c-1.344,2.01-3.316,3.693-4.34,5.818a.46.46,0,0,1,.032-.122,6.972,6.972,0,0,0-.573,1.549,11.037,11.037,0,0,0,.343,5.085,3.528,3.528,0,0,0,1.242,2.272,7.391,7.391,0,0,0,2.685.528c-.032.144-.07.291-.1.438a17.569,17.569,0,0,0,12.19,20.482v.467a11.667,11.667,0,0,1-.08,1.319h0s-7.729-1.6-9.806-.512-6.151,1.92-6.765,2.528-2.151.154-3.52,3.76-1.536,7.284-3.306,8.961-2.688,2.839-2.765,4.068.23,1.533-.464,1.92-1.69,1.994-1.383,2.608a2.18,2.18,0,0,1-.845,2.3,2.569,2.569,0,0,0-1.078,2.3s-.461,1.69-1.536,2.071-1.77,2.915-1.77,2.915l-3.5,4.016-6.909-7.649a2.912,2.912,0,0,0-4.112-.211L656.859,416a6.7,6.7,0,0,0-3.4,2.023,8.754,8.754,0,0,0-1.757,2.618l-1.859,1.671a4.72,4.72,0,0,0-.477,5.21l4.426,4.893.029.042a7.817,7.817,0,0,0-4.282,1.744c-6.609,5.828-6.689,11.2-5.687,13.649s9.377,11.889,9.377,11.889a37.468,37.468,0,0,0,11.9,9.694h0l-.054.054c-.138.147-.275.32-.41.48l-.115.147-.106.147-.125.186c-.035.048-.067.1-.1.15s-.09.144-.131.221l-.087.147c-.051.1-.105.2-.157.3l-.051.1c-.064.134-.128.272-.189.416-.022.051-.042.106-.064.157-.038.1-.08.2-.118.32s-.048.131-.07.2-.067.2-.1.3-.045.144-.064.214-.064.224-.093.339-.035.134-.054.208c-.042.176-.083.358-.119.55a1.348,1.348,0,0,1-.038.218q-.038.192-.067.394c-.016.093-.026.186-.038.278s-.032.253-.048.381l-.029.294c0,.141-.026.288-.035.435a1.506,1.506,0,0,1-.016.269c0,.243-.026.486-.029.743-.154,8.961.371,10.276.371,10.276a4.978,4.978,0,0,0,4.08,3.063,5.219,5.219,0,0,0,1.315-.07c4-.691,13.374-2.3,16.68-1.687,1.987.368,5.668-.176,8.289-.672l.688-.131.48,1.523,1.52-.416,1.28.746.816.467c1.517,5.146,7.681,3.392,7.681,3.392l1.446.838,14.836.384a30.4,30.4,0,0,0,5.252,2.522,4.877,4.877,0,0,0,.746.163,33.681,33.681,0,0,0,4.135.077c1.136-.029,2.016-.077,2.016-.077s-.15-4.029-.368-8.538a121.56,121.56,0,0,0,13.742-1.127c7.924-1.392,11.23-8.6,12.446-12.446a36.233,36.233,0,0,1,.778,4.778,34.149,34.149,0,0,0,1.232,4.141,13.993,13.993,0,0,0,1.69,3.066c5.844-1.994,2.307-4.983,1.075-6.289s.848-2.378.848-2.378,1.6-1.072,1.459-2.071-.23-2.071,5-1.994S777.161,470.315,777.161,470.315Zm-81.178-48.964c.067.438.8,5.165,1.456,6.4a8.448,8.448,0,0,1,.173,2.525c-3.1-.246-6.324-.378-6.324-.378a.742.742,0,0,1,.166.394l-.486-.109-.707-.173,5.706-8.679Zm-11.3,17.985,5.36.851.451.07a17.646,17.646,0,0,0-.278,2.531c0,.08.122.176.295.288a6.89,6.89,0,0,0-.106,1.28c.086.426,2.592,1.341,5.466,2.1-.038.154-.077.3-.115.438h0c-2.538-1.335-6.538-1.959-7-2.951s-14.081-5.76-14.081-5.76-.5-.262-1.354-.678l3.584.678.986-.1a53.731,53.731,0,0,0,6.791,1.242Z" transform="translate(379.023 49.899)"/><path class="k" d="M800.927,699.94s-2.131,12.875-12.952,14.779-46.935,1.523-46.935,1.523-20.648-2.97-28.114-20.418-12.267-24.383-5.866-24.687,40.916,11.659,42.884,11.809S802.831,656.433,800.927,699.94Z" transform="translate(337.758 -176.388)"/><path class="l" d="M800.927,699.94s-2.131,12.875-12.952,14.779-46.935,1.523-46.935,1.523-20.648-2.97-28.114-20.418-12.267-24.383-5.866-24.687,40.916,11.659,42.884,11.809S802.831,656.433,800.927,699.94Z" transform="translate(337.758 -176.388)"/><path class="m" d="M703.225,764.449a4.941,4.941,0,0,0,4.045,3.044,5.275,5.275,0,0,0,1.3-.07c3.962-.685,13.259-2.285,16.532-1.677,1.971.368,5.617-.176,8.212-.666,1.728-.32,2.989-.64,2.989-.64S733.26,754.307,732.876,754s-13.713-8.3-13.713-8.3L708.6,744.94h-.032a5.552,5.552,0,0,0-3.578,2.1c-1.117,1.347-2.074,3.562-2.138,7.191C702.707,763.153,703.225,764.449,703.225,764.449Z" transform="translate(338.606 -226.576)"/><path class="l" d="M703.228,764.469a4.94,4.94,0,0,0,4.045,3.043,43.363,43.363,0,0,1-2.88-4.186l.054-7.389a12.989,12.989,0,0,1,4.16-10.967h-.032s-5.562.378-5.716,9.281S703.228,764.469,703.228,764.469Z" transform="translate(338.604 -226.596)"/><path class="f" d="M834.131,706.329l9.828-7.681,15.467-15.24s-1.671-.08-4.189-.189c-.64.4-2.384,1.658-2.448,3.2-.077,1.862-4.183.128-6.314,1.194s-12.571,14.427-14.4,14.34-3.274-.928-4.039.368c0,.029-.035.054-.054.083Z" transform="translate(253.506 -184.608)"/><path class="f" d="M709.6,747.049c.349.17.7.32,1.063.486,7.469,3.2,16.686,9.921,17.374,11.124.416.743,5.76,3.988,9.885,6.42,1.728-.32,2.989-.64,2.989-.64s-3.047-10.132-3.431-10.436-13.713-8.3-13.713-8.3l-10.561-.758h-.032A5.575,5.575,0,0,0,709.6,747.049Z" transform="translate(334.001 -226.576)"/><path class="k" d="M643.844,650.629c.989,2.439,9.281,11.812,9.281,11.812s5.255,6.855,12.724,10.055,16.686,9.921,17.371,11.124c.442.784,6.4,4.368,10.586,6.833l.938.547,2.08,1.206,1.1.64s2.56-2.048,5.092-4.109,5-4.08,5.044-4.2c.074-.227,1.063-2.819.835-2.97-.118-.08-.64-1.136-1.6-2.359a10.824,10.824,0,0,0-3.882-3.2,10.935,10.935,0,0,1-5.028-5.242s-.32-.243-.842-.563a10.2,10.2,0,0,0-3.424-1.527c-1.68-.211-4.8-3.639-4.8-3.639a9.409,9.409,0,0,1-2.973-3.123c-.8-1.671-12.615-9.786-13.71-10.535l28.646,18.4,6.855,4.407,9.828-7.681,15.47-15.24s-2.08-.1-5.12-.23c-7.517-.32-20.869-.835-22.556-.455a12.855,12.855,0,0,1-4.193.272,14.677,14.677,0,0,1-6.317-1.155c-2.516-1.328-6.481-1.949-6.938-2.932s-13.944-5.713-13.944-5.713-18.36-9.751-24.914-3.959S642.852,648.194,643.844,650.629Z" transform="translate(379.033 -151.994)"/><path class="n" d="M829.82,460.521l2.362,7.847,3.047,17.675,11.2.762,3.242-5.376,3.248-5.367s2.016-7.143,3.466-14.052c1.28-6.113,2.119-12.046.723-12.689-1.235-.573-2.048-2.631-2.56-4.845-.067-.272-.128-.55-.186-.829a43.079,43.079,0,0,1-.742-5.68s-23.468-1.216-20.191,8.458a15.419,15.419,0,0,1,.883,5.146,12.246,12.246,0,0,1-.08,1.309A10.977,10.977,0,0,1,829.82,460.521Z" transform="translate(252.255 -17.808)"/><path class="g" d="M814.58,490.969l.839,13.332,1.9,11.351,2.135,5.258,1.9,28.764s18.373,2.125,22.84-.038a1.964,1.964,0,0,0,.81-.64c5.4-8.138,3.626-31.744,3.626-31.744l2.058-15.243-1.373-7.911-3.312-.352-2.56-.272s-.576.711-1.408,1.808c-2.259,2.983-6.4,8.849-6.135,11.3.378,3.354-.458,6.781-1.754,7.316s-2.362,1.447-2.589.534a4.144,4.144,0,0,1-.23-2.439c.227-1.3-.992-5.258-.992-5.258s-2.055-4.647-1.92-6.628-.227-4.269-.839-4.8-1.446-1.069-.762-3.52-3.005-7.185-3.005-7.185Z" transform="translate(262.618 -49.552)"/><path class="f" d="M890.341,506.126l.762,22.783,4.4,2.439a1.967,1.967,0,0,0,.81-.64c5.4-8.151,3.629-31.753,3.629-31.753L902,483.714l-1.373-7.908-3.315-.352c1.28-6.113,2.119-12.046.727-12.689-1.239-.573-2.051-2.631-2.579-4.845h0l-2.368,16.129s.2,1.453.269,2.951a8.47,8.47,0,0,1-.192,2.839,9.476,9.476,0,0,0-.154,3.812c-1.373,2.419-2.058,6.9-2.394,11.233C890.168,500.64,890.341,506.126,890.341,506.126Z" transform="translate(211.125 -31.41)"/><path class="m" d="M896.421,456.82s3.84.477,5.056,2.077,4.419,1.821,4.419,1.821,3.658,1.219,3.581,1.523,1.066.765,3.354,1.373,6.081,2.819,6.081,3.354,6.02,6.474,6.02,7.085,1.831,2.88,1.6,6.932-.458,9.143.458,9.982,0,4.116,0,4.116a2.24,2.24,0,0,0-.048,2.439c.761,1.373-.15,7.089-.15,7.089l.073,5.943s-.838,3.731.154,3.885-.154,1.827-.154,1.827-.838,3.05.23,4.42,1.37,7.239,1.37,7.239l16.321,23.682s.23,4.343-4.951,4.266-5.12.992-4.954,1.981-1.447,2.058-1.447,2.058-2.058,1.066-.838,2.362,4.724,4.266-1.066,6.247a13.819,13.819,0,0,1-1.677-3.047,34.485,34.485,0,0,1-1.219-4.112s-.534-5.792-1.6-6.554-.915-4.42-.915-4.42,1.523-2.97-.608-4.189-33.1-18.347-33.1-18.347l-.762-22.783s-.534-16.837,2.666-22.476a9.458,9.458,0,0,1,.154-3.808c.534-1.37-.077-5.792-.077-5.792Z" transform="translate(210.236 -30.662)"/><path class="f" d="M785.061,483.507s-7.658-1.578-9.716-.512-6.081,1.92-6.721,2.516-2.135.154-3.5,3.735-1.527,7.236-3.277,8.913-2.666,2.819-2.743,4.039.227,1.523-.458,1.92-1.677,1.981-1.373,2.592,15.876,14,15.876,14,.765,5.12,1.45,6.4-.762,19.125-2.285,20.344,10.286,1.107,10.286,1.107.531-11.7.989-12.308-.32-13.121-.32-13.121-.077-10.666.915-13.486.88-12.18.88-12.18.877-5.623,1.943-6.935S785.061,483.507,785.061,483.507Z" transform="translate(301.625 -48.209)"/><path class="m" d="M784.351,482.8s-7.661-1.578-9.719-.512-6.081,1.9-6.7,2.515-2.131.151-3.52,3.732-1.523,7.239-3.277,8.916-2.666,2.819-2.743,4.039.23,1.523-.454,1.9-1.677,1.981-1.373,2.589S772.408,520,772.408,520s.762,5.12,1.447,6.4-.762,19.122-2.285,20.341,10.286,1.107,10.286,1.107.534-11.7.992-12.305-.32-13.121-.32-13.121-.074-10.667.915-13.486.88-12.193.88-12.193.877-5.623,1.939-6.932S784.351,482.8,784.351,482.8Z" transform="translate(302.108 -47.726)"/><path class="f" d="M840.334,446.424a15.423,15.423,0,0,1,.883,5.146,17.483,17.483,0,0,0,20.05-7.924,43.083,43.083,0,0,1-.743-5.681S837.06,436.75,840.334,446.424Z" transform="translate(245.319 -17.808)"/><path class="n" d="M804.82,389.771a17.448,17.448,0,1,0,.378-3.626A17.448,17.448,0,0,0,804.82,389.771Z" transform="translate(269.254 26.806)"/><path class="m" d="M737.283,553.06l-4.189,1.3a2.172,2.172,0,0,1-.839,2.285,2.55,2.55,0,0,0-1.066,2.288s-.458,1.674-1.523,2.054-1.754,2.88-1.754,2.88l-3.5,4.039s-1.3,1.066-1.066,1.6-1.373.685-1.373.685l.839,13.576,7.239,1.373,4.48-.458,3.658-1.373,3.2-1.92,1.459-3.7,6.4-9.751Z" transform="translate(325.59 -96.103)"/><path class="n" d="M685.6,592.328s-9.281-13.412-16.229-6.173,2.82,18.971,5.1,18.59,13.182-.989,13.182-.989Z" transform="translate(363.025 -117.148)"/><rect class="b" width="19.656" height="22.338" rx="9.828" transform="translate(1026.408 476.295) rotate(-42.05)"/><rect class="f" width="19.656" height="22.338" rx="9.828" transform="translate(1026.408 476.295) rotate(-42.05)"/><rect class="b" width="19.656" height="22.338" rx="9.828" transform="translate(1026.67 475.19) rotate(-42.05)"/><circle class="c" cx="4.343" cy="4.343" r="4.343" transform="translate(1036.862 473.109)"/><circle class="f" cx="4.343" cy="4.343" r="4.343" transform="translate(1036.862 473.109)"/><circle class="h" cx="4.343" cy="4.343" r="4.343" transform="translate(1037.105 472.559)"/><path class="n" d="M706.5,608.743c-.077,10.058,20.725,12.19,20.725,12.19l5.312.845,2.381.378.992-9.818s-1.091-.163-2.454-.48c-2.013-.47-4.621-1.28-5.169-2.416C727.375,607.537,706.573,598.688,706.5,608.743Z" transform="translate(336.11 -130.757)"/><path class="f" d="M806,386.3a2.071,2.071,0,0,1,1.28.57c.589.624.621,1.731,1.386,2.115a1.574,1.574,0,0,0,.909.106c2.026-.288,3.2-2.56,5.143-3.2a5.184,5.184,0,0,1,3.408.291,2.538,2.538,0,0,1,1.13.726c.64.842.2,2.08.5,3.1.419,1.414,2.109,1.978,3.572,2.163s3.111.288,4.087,1.392a3.709,3.709,0,0,1,.726,2.947,2.336,2.336,0,0,0,0,1.091c.4,1.142,2.381.96,2.9.07.378-.656.262-1.2,1.152-1.383a3.794,3.794,0,0,1,1.866.32,13.669,13.669,0,0,0,4.826.743A17.451,17.451,0,1,0,806,386.3Z" transform="translate(268.452 26.653)"/><path class="k" d="M819.019,377.279a2.332,2.332,0,0,1,0-1.091,3.712,3.712,0,0,0-.726-2.947c-.96-1.1-2.624-1.21-4.087-1.392s-3.152-.746-3.572-2.16c-.3-1.021.154-2.263-.5-3.1a2.5,2.5,0,0,0-1.126-.723,5.259,5.259,0,0,0-3.411-.294c-1.943.64-3.117,2.919-5.143,3.2a1.574,1.574,0,0,1-.909-.106c-.765-.384-.8-1.491-1.386-2.112-.925-.979-2.682-.349-3.815-1.075a3.505,3.505,0,0,1-1.229-2.256,10.987,10.987,0,0,1-.339-5.053c.662-2.835,3.2-4.778,4.8-7.2,1.507-2.256,2.352-5.12,4.618-6.605s5.175-1.155,7.729-.4a23.848,23.848,0,0,0,3.62.96c2.061.253,4.128-.32,6.2-.378a13.32,13.32,0,0,1,8.189,2.487,4.532,4.532,0,0,1,1.338,1.354,6.924,6.924,0,0,1,.592,2.426,12.4,12.4,0,0,0,1.6,4.458c.64,1.072,1.443,2.045,2.023,3.152a4.836,4.836,0,0,1,.547,3.607c-.2.64-.582,1.194-.726,1.837-.339,1.488.64,2.909,1.309,4.282a8.031,8.031,0,0,1,.89,4.061,5.12,5.12,0,0,1-1.824,3.651,6.555,6.555,0,0,1-3.863,1.171,13.691,13.691,0,0,1-4.922-.739,3.832,3.832,0,0,0-1.866-.32c-.89.182-.774.726-1.152,1.383C821.4,378.251,819.422,378.421,819.019,377.279Z" transform="translate(277.56 46.515)"/><path class="f" d="M831.171,707.671,841,699.99l15.47-15.24s-2.08-.1-5.12-.23a3.307,3.307,0,0,0-1.079,2.08c-.077,1.863-4.183.131-6.314,1.2s-12.571,14.423-14.4,14.337-3.274-.928-4.039.368a.783.783,0,0,1-.054.086,2.167,2.167,0,0,1-1.162.688Z" transform="translate(256.008 -185.492)"/><path class="k" d="M783.87,695.878l4.938,15.765.774,2.477,2.352-.64,5.184-1.424,23.093-6.343a20.119,20.119,0,0,0,8.321-2.218,25.172,25.172,0,0,1,14.35-3.13c3.053.285,6.448-1.031,9.281-6.234,0,0,6.4-18.882-9.754-24.322s-16.923,2.88-16.923,2.88-.083.045-.218.134c-.64.4-2.384,1.658-2.448,3.2-.077,1.863-4.183.128-6.314,1.194s-12.571,14.427-14.4,14.34-3.274-.928-4.039.368c0,.029-.035.054-.054.083-.563.778-2.259.96-3.383.989-.611.019-1.056,0-1.056,0l-.144.045-1.2.333Z" transform="translate(283.5 -174.234)"/><path class="f" d="M787.86,638.421l2.381.378.992-9.818s-1.091-.163-2.455-.48C789.14,629.86,788.321,635.163,787.86,638.421Z" transform="translate(280.787 -147.4)"/><path class="f" d="M850.907,515.5s7.086-2.058,5.332,18.059a56.169,56.169,0,0,1-14.856,32.825s-15.086,6.628-21.867,5.562a116.245,116.245,0,0,0-11.732-1.28,17.217,17.217,0,0,0-6.858-1.827c-3.812-.154-11.809-2.515-11.963-3.277s1.981-11.963,1.066-12.8c0,0,10.667.439,11.735,1.21s2.589.218,3.731,0,4.65-3.267,11.582-.6c0,0,2.362.227,3.277-.381a3.275,3.275,0,0,1,2.381-.154,6.244,6.244,0,0,0,1.658-.854c.221-.32,2.055,0,2.055,0a.813.813,0,0,0,1.146-.534,4.981,4.981,0,0,1,1.066-1.674s2.058-11.582,5.943-15.925a2.488,2.488,0,0,0,.839-2.211C835.137,530.42,841.774,513.059,850.907,515.5Z" transform="translate(280.042 -70.403)"/><path class="m" d="M850.334,510.662s7.085-2.058,5.335,18.059a56.17,56.17,0,0,1-14.875,32.838s-15.086,6.628-21.867,5.562-11.732-1.3-11.732-1.3A17.191,17.191,0,0,0,800.336,564c-3.808-.154-11.809-2.515-11.963-3.277s1.981-11.963,1.069-12.8c0,0,10.667.438,11.732,1.21s2.592.218,3.735,0,4.647-3.264,11.582-.6c0,0,2.362.227,3.274-.381a3.285,3.285,0,0,1,2.384-.154,6.713,6.713,0,0,0,1.655-.839c.227-.3,2.058,0,2.058,0a.809.809,0,0,0,1.142-.531,4.973,4.973,0,0,1,1.066-1.677s2.058-11.582,5.943-15.925a2.484,2.484,0,0,0,.839-2.208C834.547,525.6,841.174,508.224,850.334,510.662Z" transform="translate(280.443 -67.114)"/><path class="f" d="M810,746.595l10.062,12.161c.038-.035.064-.061.064-.07.077-.23,1.066-2.819.839-2.973s-1.981-3.962-5.485-5.562a10.312,10.312,0,0,1-4.307-3.92Z" transform="translate(265.732 -227.453)"/><path class="f" d="M809.975,784.633l1.1.64s2.56-2.048,5.092-4.109,5-4.08,5.044-4.2c.074-.227,1.063-2.819.835-2.97-.119-.08-.64-1.136-1.6-2.359-6.823-1.92-2.48,2.826-1.9,3.043,0,0-8.321-1.92-8.762,7.14A10.682,10.682,0,0,0,809.975,784.633Z" transform="translate(265.894 -244.421)"/><path class="m" d="M819.886,788.488l1.45.838,14.721.381a28.442,28.442,0,0,0,5.2,2.5,4.448,4.448,0,0,0,.739.163,33.051,33.051,0,0,0,4.1.077c1.126-.029,2-.077,2-.077s-.7-18.562-1.223-20.482c-.25-.934-1.482-.73-2.7-.262a17.662,17.662,0,0,0-2.634,1.334s-6.247.6-7.239,1.143-3.808-.32-5.562,0-4.874-2.064-4.874-2.064c-8.535-2.816-3.735,2.439-3.127,2.669,0,0-8.3-1.92-8.759,7.14S819.886,788.488,819.886,788.488Z" transform="translate(264.397 -244.441)"/><path class="m" d="M903.135,781.368c.16,3.84,3.152,8.606,4.935,11.124,1.126-.029,2-.077,2-.077s-.7-18.562-1.222-20.482c-.25-.934-1.482-.73-2.7-.262C904.688,774.424,903.007,778.274,903.135,781.368Z" transform="translate(202.407 -244.484)"/><path class="f" d="M903.135,781.368c.16,3.84,3.152,8.606,4.935,11.124,1.126-.029,2-.077,2-.077s-.7-18.562-1.222-20.482c-.25-.934-1.482-.73-2.7-.262C904.688,774.424,903.007,778.274,903.135,781.368Z" transform="translate(202.407 -244.484)"/><path class="l" d="M894.764,781.877c1.011,3.706,1,7.863,2.615,10.375a4.451,4.451,0,0,0,.739.163,33.05,33.05,0,0,0,4.1.077c1.126-.029,2-.077,2-.077s-.7-18.562-1.222-20.482c-.25-.934-1.482-.73-2.7-.262a17.669,17.669,0,0,0-2.634,1.335S893.471,777.134,894.764,781.877Z" transform="translate(208.264 -244.484)"/><path class="f" d="M736.77,686.94s7.3,2.371,13.492,10.795Z" transform="translate(315.527 -187.137)"/><g class="o" transform="translate(1070.15 403.142)"><path d="M921.6,401.26a1.516,1.516,0,0,1-.045.16,5.184,5.184,0,0,1-.253.64A4.787,4.787,0,0,1,921.6,401.26Z" transform="translate(-880.099 -396.024)"/><path d="M792.735,386.439a6.877,6.877,0,0,1,.566-1.539c-.038.131-.08.262-.112.4a10.986,10.986,0,0,0,.339,5.053,3.52,3.52,0,0,0,1.229,2.256c1.136.726,2.88.093,3.815,1.072.589.624.621,1.731,1.389,2.115a1.571,1.571,0,0,0,.909.106c2.023-.288,3.2-2.56,5.143-3.2a5.167,5.167,0,0,1,3.408.294,2.5,2.5,0,0,1,1.127.723c.64.842.2,2.083.5,3.1.419,1.415,2.109,1.978,3.571,2.16s3.111.288,4.087,1.4a3.705,3.705,0,0,1,.726,2.947,2.378,2.378,0,0,0,0,1.091c.4,1.143,2.381.96,2.88.07.378-.656.266-1.2,1.155-1.383a3.787,3.787,0,0,1,1.862.32,13.691,13.691,0,0,0,4.922.739,6.524,6.524,0,0,0,3.863-1.171,4.478,4.478,0,0,0,1.184-1.44,4.847,4.847,0,0,1-1.632,2.586A6.54,6.54,0,0,1,829.8,405.3a13.663,13.663,0,0,1-4.919-.739,3.831,3.831,0,0,0-1.866-.32c-.89.182-.778.726-1.152,1.382-.518.9-2.493,1.072-2.9-.07a2.378,2.378,0,0,1,0-1.091,3.7,3.7,0,0,0-.723-2.947c-.979-1.1-2.627-1.21-4.09-1.392s-3.152-.746-3.568-2.16c-.3-1.021.154-2.263-.5-3.1a2.522,2.522,0,0,0-1.13-.723,5.249,5.249,0,0,0-3.408-.294c-1.946.64-3.12,2.919-5.143,3.2a1.572,1.572,0,0,1-.909-.106c-.768-.384-.8-1.491-1.389-2.112-.925-.979-2.679-.349-3.812-1.075a3.509,3.509,0,0,1-1.232-2.256A11.044,11.044,0,0,1,792.735,386.439Z" transform="translate(-792.558 -384.9)"/></g><path class="f" d="M912.917,572.5c-1.4,1.885-2.989,3.629-4.224,5.623a10.668,10.668,0,0,0-1.85,6.65c1.28-1.312,1.863-3.123,2.669-4.768,1.363-2.784,3.405-5.146,5.121-7.706.32-.49,2.435-3.312,1.37-3.447C915.125,568.742,913.394,571.859,912.917,572.5Z" transform="translate(199.913 -106.84)"/></g></g></svg>