<svg xmlns="http://www.w3.org/2000/svg" width="253.305" height="223.58" viewBox="0 0 253.305 223.58"><defs><style>.a,.i{fill:#ec741d;}.a{opacity:0.28;}.b{fill:#a0616a;}.c{fill:#d66a1c;}.d{fill:#d0cde1;}.e{opacity:0.15;}.f{fill:#2f2e41;}.g{fill:#b1a4a4;}.h{fill:#3f3d56;}.i{opacity:0.6;}</style></defs><g transform="translate(-374 -1912.442)"><g transform="translate(374 1900.086)"><path class="a" d="M476.15,79.319c0,.193-.006.382-.022.569a7.815,7.815,0,1,1-14.7-4.218,7.187,7.187,0,0,1,.575-.924,7.812,7.812,0,0,1,14.124,3.936C476.141,78.892,476.15,79.1,476.15,79.319Z" transform="translate(-358.069 -59.148)"/><path class="b" d="M567.729,636.956s17.151.715,17.151,5-19.3,0-19.3,0Z" transform="translate(-433.809 -466.766)"/><path class="c" d="M294.692,637.721l-32.158-2.144L261.1,618.426l-7.146,15.007-31.444-4.288c.715-27.156,12.149-53.6,12.863-57.171s2.423-18.337,2.423-18.337c3.123-6.625,19.488-7.246,32.316-6.646,5.317.243,10.034.7,12.942,1.029,1.922.214,3.059.372,3.059.372,5.124,5.281,8.426,12.477,10.455,20.517C303.889,597.874,294.692,637.721,294.692,637.721Z" transform="translate(-186.498 -401.785)"/><circle class="b" cx="17.866" cy="17.866" r="17.866" transform="translate(54.596 34.409)"/><path class="b" d="M273.612,229.879s-5,22.154-12.864,28.585,30.729,0,30.729,0-8.576-14.293-2.144-20.724S273.612,229.879,273.612,229.879Z" transform="translate(-213.299 -173.316)"/><path class="d" d="M283.01,374.874l-11.856,1.315-33.166,3.688s-.157-.422-.436-1.186c-2.408-6.568-14.007-38.526-15.286-48.124-1.429-10.72,13.578-23.583,13.578-23.583s14.293-2.859,18.581-2.859,21.439,6.432,21.439,6.432l6.4,57.535.55,4.981Z" transform="translate(-186.251 -226.838)"/><path class="e" d="M388.7,471.5l-24.033-14.085s-.422-1.372-1.136-3.687c-.357-1.158-.793-2.558-1.286-4.145-2.773-8.9-7.425-23.6-11.155-34.331-5.717-16.437,22.154,29.3,22.154,29.3l1.394,1.079.55,4.981c1.922.214,3.059.372,3.059.372C383.369,456.263,386.671,463.46,388.7,471.5Z" transform="translate(-278.627 -304.376)"/><path class="d" d="M364.151,326.828s-7.146,9.29-1.429,25.727S376.3,394.719,376.3,394.719l41.449,24.3,5.717-7.146-38.59-30.015s-1.429-54.312-8.576-56.456A14.646,14.646,0,0,0,364.151,326.828Z" transform="translate(-285.972 -241.68)"/><path class="b" d="M246.836,543.39s10,20.724,14.293,18.581-10.72-23.583-10.72-23.583Z" transform="translate(-204.032 -395.711)"/><path class="d" d="M135.218,352.77,97.342,384.214s-14.293,10,12.149,17.151S138.076,412.8,138.076,412.8s2.859-9.29,6.432-7.861l-30.729-15.007,25.012-15.007Z" transform="translate(-93.485 -261.905)"/><path class="f" d="M166.317,157.115a100.892,100.892,0,0,0,10.117-5.365c-.262-7.787.7-14.856,3.5-18.6,1.576-3.577,4.884-7.159,7.475-9.98,6.364-6.927,20.435-10.793,22.931-7.332,18.876.373,20.863,15.169,20.863,15.169-.1,6.189-6.53,6.385-12.165,6.159.5,4.225-.84,8.615-4.734,10.562-7.446,3.723-9.68,8.563-5.957,11.914s10.424,12.286,1.489,14.52-10.052,6.7-7.446,8.563-5.957-3.351-5.957-3.351-1.489,8.935-9.308,6.7a4.7,4.7,0,0,1-2.089-1.48c-2.112,2.32-4,3.692-5.415,3.7-8.131.043-7.156-8.963-7.156-8.963s-9.651,2.71-6.64,1.621,3.141-5.693-4.862-10.253S161.829,159.337,166.317,157.115Z" transform="translate(-139.807 -90.176)"/><path class="g" d="M545.087,257.332l-.13-.017.316,1.2a31.579,31.579,0,0,0,1.3,4.934l9.274,35.256a5.975,5.975,0,0,0,4.865,4.385l18.914,2.926a5.976,5.976,0,0,0,6.182-3.085l17.974-33.572a31.537,31.537,0,0,0,1.538-2.872l.61-1.14-.1-.013a31.778,31.778,0,1,0-60.747-8Z" transform="translate(-418.814 -167.049)"/><path class="d" d="M576.527,302.666a6.506,6.506,0,0,1-.995-.077l-19.77-3.059a6.524,6.524,0,0,1-5.313-4.789l-9.694-36.852a33.226,33.226,0,0,1-1.362-5.18l-.245-1.612a33.5,33.5,0,0,1,38.35-37.365l-.086.552a32.956,32.956,0,0,0-37.663,37.1l.188,1.206a33.016,33.016,0,0,0,1.35,5.136l9.7,36.874a5.965,5.965,0,0,0,4.858,4.379l19.77,3.059a5.975,5.975,0,0,0,6.173-3.08l.492.263a6.537,6.537,0,0,1-5.755,3.445Z" transform="translate(-414.555 -161.393)"/><rect class="h" width="34.979" height="0.722" transform="translate(154.958 131.143) rotate(-69.885)"/><rect class="h" width="0.722" height="34.979" transform="translate(146.626 95.288) rotate(-2.516)"/><path class="h" d="M600.771,579.385l-25.333-3.919a.722.722,0,1,1,.221-1.427l25.333,3.919a.722.722,0,1,1-.221,1.427Z" transform="translate(-440.47 -421.405)"/><path class="h" d="M603.1,560.111l-25.333-3.919a.722.722,0,0,1,.221-1.427l25.333,3.919a.722.722,0,0,1-.221,1.427Z" transform="translate(-442.147 -407.51)"/><path class="h" d="M605.425,540.838l-25.333-3.919a.722.722,0,1,1,.221-1.427l25.333,3.919a.722.722,0,0,1-.221,1.427Z" transform="translate(-443.825 -393.617)"/><path class="h" d="M598.442,584.639c5.025.777,9.532-1.393,10.066-4.848l-18.2-2.815C589.777,580.431,593.417,583.862,598.442,584.639Z" transform="translate(-451.596 -423.529)"/><path class="h" d="M625.058,341.972a4.448,4.448,0,0,1-2.465-1.594c-.161-.188-.317-.382-.474-.578a5.639,5.639,0,0,0-1.861-1.732c-1.657-.773-3.61.307-5.3,1.465l-.408-.6c1.859-1.274,4.026-2.451,6.014-1.524a6.257,6.257,0,0,1,2.118,1.934c.152.189.3.378.46.56.51.6,1.526,1.56,2.616,1.337a3.517,3.517,0,0,0,1.255-.664,6.718,6.718,0,0,1,.888-.56,3.536,3.536,0,0,1,3.882.549,6.994,6.994,0,0,1,.527.557,1.8,1.8,0,0,0,2.905.342,3.734,3.734,0,0,1,2.186-.654l.078.011c1.422.22,2.078,1.793,2.449,2.967l-.689.217c-.5-1.6-1.118-2.389-1.923-2.478a3.174,3.174,0,0,0-1.758.573,2.464,2.464,0,0,1-3.791-.5,6.369,6.369,0,0,0-.471-.5,2.837,2.837,0,0,0-3.074-.435,6.1,6.1,0,0,0-.792.5,4.1,4.1,0,0,1-1.527.782A2.373,2.373,0,0,1,625.058,341.972Z" transform="translate(-469.105 -250.596)"/><path class="i" d="M476.15,79.319c0,.193-.006.382-.022.569a7.815,7.815,0,1,1-14.7-4.218,7.187,7.187,0,0,1,.575-.924,7.812,7.812,0,0,1,14.124,3.936C476.141,78.892,476.15,79.1,476.15,79.319Z" transform="translate(-222.846 67.88)"/></g></g></svg>